<mxfile host="app.diagrams.net" modified="2023-11-11T05:04:29.657Z" agent="Mozilla/5.0 (Windows NT 10.0; Win64; x64) AppleWebKit/537.36 (KHTML, like Gecko) Chrome/119.0.0.0 Safari/537.36 Edg/119.0.0.0" version="22.1.0" etag="_3u8zuXbYnGCpaa1R9lA" type="device">
  <diagram id="wny4ZzrDlxPDJRUwsmbR" name="Page-1">
    <mxGraphModel dx="2862" dy="1871" grid="1" gridSize="10" guides="1" tooltips="1" connect="1" arrows="1" fold="1" page="1" pageScale="1" pageWidth="850" pageHeight="1100" background="#ffffff" math="0" shadow="0">
      <root>
        <mxCell id="0" />
        <mxCell id="1" parent="0" />
        <mxCell id="16" style="edgeStyle=none;html=1;strokeColor=#0a0a0a;" parent="1" source="2" target="7" edge="1">
          <mxGeometry relative="1" as="geometry" />
        </mxCell>
        <mxCell id="2" value="User" style="shape=umlActor;verticalLabelPosition=bottom;verticalAlign=top;html=1;outlineConnect=0;strokeColor=#000000;fillColor=#FFFFFF;" parent="1" vertex="1">
          <mxGeometry x="-810" y="70" width="30" height="60" as="geometry" />
        </mxCell>
        <mxCell id="4" value="Docker" style="swimlane;strokeColor=#000000;strokeWidth=3;" parent="1" vertex="1">
          <mxGeometry x="-680" y="-10" width="650" height="750" as="geometry" />
        </mxCell>
        <mxCell id="11" style="edgeStyle=none;html=1;entryX=-0.104;entryY=0.521;entryDx=0;entryDy=0;entryPerimeter=0;" parent="4" source="7" target="10" edge="1">
          <mxGeometry relative="1" as="geometry" />
        </mxCell>
        <mxCell id="15" style="edgeStyle=none;html=1;strokeColor=#0a0a0a;" parent="4" source="7" target="10" edge="1">
          <mxGeometry relative="1" as="geometry" />
        </mxCell>
        <mxCell id="18" style="edgeStyle=none;html=1;entryX=0.5;entryY=0;entryDx=0;entryDy=0;strokeColor=#0a0a0a;" parent="4" source="7" target="17" edge="1">
          <mxGeometry relative="1" as="geometry" />
        </mxCell>
        <mxCell id="34" style="edgeStyle=none;html=1;entryX=0.5;entryY=0;entryDx=0;entryDy=0;strokeColor=#0a0a0a;fontColor=#f8f6f6;" parent="4" source="7" target="32" edge="1">
          <mxGeometry relative="1" as="geometry" />
        </mxCell>
        <mxCell id="7" value="" style="shape=image;verticalLabelPosition=bottom;labelBackgroundColor=default;verticalAlign=top;aspect=fixed;imageAspect=0;image=data:image/png,iVBORw0KGgoAAAANSUhEUgAAAIIAAACCCAMAAAC93eDPAAAAZlBMVEX///8BljkAljkAkSoAlDMAki5ApVtvtoCBvo9Jp2GizaoAkCYAlTalz60Ajh/4/Pq72sLq9O2Mwpbb7N+s07UAixKUxp7I4s54uIPQ5tVernDj8OZlsHQAiADw+PM5nk1Uq2kqm0Y5Kd1DAAAFH0lEQVR4nO1b6XqqMBA1mwqTBqyCuBT1/V/yJtqFhGGLIf64nq981RroMeckkzDDYvHGG2+8ERaH6+r0UgKbNROMf9avY1ASoIRQuO1eRCAXIMkdUl0OLyBwuP4QMODsvI1MoNYmMBqQ+2F+GC+zmAxSzihxQFVES+x5U4M/RLPE9gjyW4CGEI+DswizRPYwQRcok+XMDHYcegjcAbd8RgL7G24CxxKQzDVATyvGXfFbb78tsd7MweBTtAdipyWApMEJ7MSgCWw1VGBL7JdjTGCDwzWcJTYVcERx9G3zpRChwnjJxpvAhrZEiDk7h2kmsCEV2T9J4JBoE/R299AnHI7PWKKuoG82HgdjCe8w7m8ChwTIDy8CuWCTB2IXJHhY4tATkid54WfOhokru7rqDck+oEx8TmCQQhgTOCSAj50l8lEh2QcSLmMs0ViXWbpKwUBwSsd4gQrQcZ1iYRyGV3Zb1ARUFLeqLKtbMaKDKKhzWV4L1E2UkSEOZ4adp364Z7vb8MrtsXqs1wptCdUAhSXHGDSWpNmn6O0Iqn7l/kA58OUYCo7E4mw1yRnt8QJr0K0E0mgcBed7SWdS2X91ayFJo+GmQBr6UOCJ22jX7QdhKX1BZPURQrT9s9YccCHAWrauBCJE6xsN9wJbt5sdsYFjgFAY7FQ/CtkN6eK4FBanjqEZioKtHkphsUdkjuqFRdfEE1EIjRLjEJeCHhZtDjG9oJFdOHmpFzROvDUsIguhF7mtmTqyEBp5QV8rxOIRLaxesDYt8wiRO5uzM0SnUF7tE7LE+jehKPR5IS2cHcnm1tx2IRSCeyFl4NxE2jbXRjGESBn9chZyeWOmjkOBSOlsBRrRIooXdGAQiXMbq4K4XjB/Orun/XzdSEKYPZszXdXk+zywNs8zUtB7JmefviUyqhf0Xyk4CRgzLGJ6gZhtk3OzPS2ieuF+qZsTLSqG98JcQph7Du6wuLK4QhhLutFCL+SiCqE5FO6wYDQyBUKZE7EORYyF258X9CGZEy0+viIs3FJrT80v7rCw0pTzC6Ehrvb5mTVjRaFAe2+gRfCCeQk96cAYXjCX/epO10cRwnBQnRziCKEPfulKD0cSQkN0XTWWEGaWXL2agn2XOgiFiV64L6LQJHk8L2hIjmW/IgphrsyQFHlcCpQv2znZUF4Qlt1xL+gDixbnQF6wz6mQL/bdD+1hQZG7xD4UZDOhlWFZjl8OTmr6gKZEPChYS+V1VxbgwcFaTGZYosvLC/rKv/H445ELwbxAHn74Cxf1CrBGgxSumNRUHe/B8LQayhBSxtbfcTO/4B0mjgMU9grNdXAFxyMp+AADQ0IoRZKEdCRVqYDBDP5+qVr9aw7KuaToJ+5LSqVp6yp2/yXVdUQ9YpYGLxz47QImR+bu6/WYHp9OQKgJtamnowpNgnJ1nlZ7l1+gLy08/RNIJlezZCme/ffrAubeGBqHugqkhjaBd2XT9qrk0ySMCZ6pyd3dGDYZTPACHVe/0oO6/HrGEpQVfoVdNokVPmePISBgHaZK/ZDcLTFVCGOCcHWfO+JRa8XCVr/WnxNnCT0Q09BPCmymzNnaBNUcjyrsExjpBQljQrIPdBgfYwkKZMaq+BFh3ITk+QgYDIRxPRBX8z/C1BfGJSRRnhPpDOM6JM/5aIRNYq3aJPRA9C829sDWtcSzIdkHxhINL8Dy2cJzD2hL/MwSvuuyACQe9erhQrIPjCUmF1mHRr5cRhuIb7zxxn+Df4OrTglHxD5aAAAAAElFTkSuQmCC;imageBorder=default;" parent="4" vertex="1">
          <mxGeometry x="50" y="60" width="100" height="100" as="geometry" />
        </mxCell>
        <mxCell id="23" style="edgeStyle=none;html=1;strokeColor=#0a0a0a;fontColor=#f8f6f6;" parent="4" source="10" target="20" edge="1">
          <mxGeometry relative="1" as="geometry" />
        </mxCell>
        <mxCell id="41" style="edgeStyle=none;html=1;exitX=1;exitY=0.75;exitDx=0;exitDy=0;entryX=0;entryY=0.25;entryDx=0;entryDy=0;strokeColor=#0a0a0a;fontColor=#f8f6f6;" parent="4" source="10" target="40" edge="1">
          <mxGeometry relative="1" as="geometry" />
        </mxCell>
        <mxCell id="10" value="" style="shape=image;verticalLabelPosition=bottom;labelBackgroundColor=default;verticalAlign=top;aspect=fixed;imageAspect=0;image=data:image/png,iVBORw0KGgoAAAANSUhEUgAAAH4AAAB+CAMAAADV/VW6AAAAw1BMVEX///9OTU6enJylo6Oop6eUkZKvrq6ysbEIt+GioKGal5i6ubmPjI0AiaqXlZXe3t48weY9PD1EQ0T5+fnFxcVfXl/MzMzs7Ox2dXZ+fn9paGnAv7/z8/NJSEnS0tLl5eVRQj4xkq5WVVZGVV1MYmxPSEY7f5UNpMmupaKFhoU1MzVKUVUdf5s+coNFla5AYW5BqcgKmLuFkJV+nKdwna1bmrBdtdE6ttqJt8idsLiqtLh4uM69sKuHqLV4rL6YpqtUcHuLuAOWAAAID0lEQVRoge2aaXfbthKGuVMkWDISxX2L1ao2leukuW28JMry/39VBzskwpaba364p3yTEy6i9GCAmQEwjGEsWrRo0aJFixYtWrTo36D0Wc1NL7PntAvnpTcH0+zgj/pXPd0kc9LTnfm8unpOvLW+gDfX2/noQ3eJbpq7+fDV5jJ+7c1F719Ah+EvZsLvXtD3prmJ5qH7wu/e/Qp6J4m/YUl+Pwe9Fbbv//ML6PrXPbu8fYP1/i3v/VmCz+Ijv/+A6b+sPnL8akX4wv518/r0QfodNX61+kD4+99XlP/HW8F/fXy53lC9vcX0j8C83uPrbsXwb27ZE5uD9dr0JIqZ/ku7HutP142iv1acfx9xjXmeby+p0QnpJw0kHvjEun61uoObvn+8F+Y/+Fye59iKgsA6V3gilwpa7mqNR1yP0vjPCGHUozD/zWdPyFFEW3AibTNi3ALdpOFzenMljP9C6ar5X446ugav7QXaA+N0zZIL479yv1utEMP7n6X5jxTuT+j2E3RrOgCTSaMQxiPZ9Q8IRpia/0Xw7zS2O/Y5/zk6mD+c4bei6/8Sxt8fsYN5tAWK9+m7XsXrPVDQ3ch+yu8+S+MffYaHBhwfZPcfnzDefikd+CeTRiroatAdJR4acGK+lm7r6JaODlK9rz/1O2o8i26uk+B7Dq+N/viMHiFJb6XfyaB7OJ7ij3ecv7q70dIpX0un6UbVKJcsuqC798+s90TwgVc8jdelPpbtThogg68A154E3eMET4MP01f3tpZuaxOvzLYnLRDB13gsjSMadKR/jxO85/1xDSKN+6YwOSmwAuHlEi/NFWI3LOZ9Ocf734nxxL009O+yb75P6VjxRK4GTxsQ+TzsBP74Hvsdze1T/Hs5F9xo6VO8q8fjBlQi9HrF/I8iuk7xjvOnnAsc/WiHL8dHo7Jck+Z/EsF9p+DBvxxPdv03YbwjmhDgI+WzQ0jbQ0c/jOWwE3qlpJ1B8H2ZXB44njq4MhdIeo1VAT+o4CSrMS/KspgeqAgxywi+xjcqOKlOsq5wfjW3Q6aV6VXnd07VYZmuZbkmOS3DOMy6DRysrKMb866O3bjuusyN3JrcMIF+ulQspPlqboe+5XhlLhDGW3zVHwQ12yKE4YjPInqgH0cxuaiikT8/Vmcz7lbwldzu2IHNGqAYL+e3suMAl5+V4Y4ArEzukLKYXOzijD9V+ad0NfhEbn/z5SYISCc7N3Iu4H4HjiYM3MmaBDvL1M0ibUqnbCDbM7yR6Lzv0aZ8W/E76u0Q76LD/7HW6JwOS03G99SFFZ5EsKWy67/eOCzbRD9L77Ip3RgckWKk933FU6h980kYj+daFunZZdATxmv3x4jvH26+qd4HUoOOzHG4TeVh/XM6lDq6Ucji3bXg/8CXP4TfXYlH6uSn9URlMljT3NHtf+N4uqMnu31ya9/htAE65Prf+B/UitHcX1H+PatvvGPG/77n3jNHfaGRNT2KvxXVDeJ315xuzlPaFJG8v70CvRc4E19efeDXM9WWkoPo/rcgSafX4mo3yVqvo/FFdT1d1noVFS/JZF09W1HfvlhRhqCbpapHlGYX7e/0Wet1lB8u4Q9zVXSJygvmb+Z9mzIcNs9qulR4XaE4fEbu6yf7RYv+T5S27RNZvy1+KiclSU+/1/d5bqTwDymXN83WyPE/RA3ycbZPfLzx8/GCo/WdQPLaJoTdq+vIpYgXRTxJ+dXokJNwHMvzxQpQya4LuNvWSHkxHqHGKBDy6Wee76RGixy25UatUVhWLPBJHLmwoY9l0awtq4qj7LokLYnrsp7M14Ad6CGHnyN4zEY+okU/g2zDvB7sZTtu2Ow4KeBDjk9g8x65QQhtqFjVClWAtzm+juHgZHU2fQtJ8UlOW9ECvGipaMmzxxUgDzaGvuM5aEjTYhsEuVEEAt/GrFTa2uNYkeFKR8BXbHFA8T7Qgwmd4jmd4JXMnvgItQVwE2MAo1lVJIHsq+BR5EZs12yNY4S/npcYX9KudjAeAT2e0gke6Fs6UGd48DmUN54H3K3teIrTy7FPLTnkRTWO+IfCqvIQNCFleCuv61rzKoHgexhvtozB+LwnIg8PPi7sOwXue0d9E1KEHD9A1wt/HkdcOBrKqhyKsqxzhi+Brl+qsJdSucQz0bY2uMyCuZ5jqystBR9FskoLvQ/uFZQVrMetsnQZnkibMBi+4Z2PY46IPl04vmenFK9OuIB3OV4pErvj6MMQVCU0tQCjE4IvCX58Co8TDR1ywKPi5P+pIGq80UC+OcVHFNrGsXxBVY1Vb/jY8UoiHPA27nmrrjPdIh3jSbjnGNiC8adrmobh+yCw2BDj9CrxhuPGMfsOAtcrjFIRhEQA+MEYYW+s2Z8BHu4WzbYhoQv5Ro83LOCT+BosqwB8zPFJFEc2+VIOxtsQdVK1R/AQcsUuy0rNazQ67Al0P/x4C4Oek7yf52f4JAyC0Gkaz4WFF8bHtBbfG2iMqhEC1AJ61Roj9HmK81bqA5/jjdzMdrYGT0Me59qU4Jl87vo84PowwFV6y3LdgeBx3TbGLwdgUsFpbqxKoCdlVbMsVIDPNTzpGlZWm5PlIrg6wafI9xvAyze1FO9bsUgqPinYutg7ClYeppm9j0mWIxnfLUuxCw53WW2Epkmdvtx06/NZuSgKOtjtMAxGWhQDF/18GBL5lQLyY0IeT0XBhDyXFv2WfoI/EF9o+6Q3hr6nv1VAMpt1o7Jo0aJFixYtWrRo0aJ/tf4G4fL/LOhqy5MAAAAASUVORK5CYII=;imageBorder=default;" parent="4" vertex="1">
          <mxGeometry x="287.03" y="60" width="96" height="96" as="geometry" />
        </mxCell>
        <mxCell id="19" style="edgeStyle=none;html=1;strokeColor=#0a0a0a;" parent="4" source="17" target="10" edge="1">
          <mxGeometry relative="1" as="geometry" />
        </mxCell>
        <mxCell id="27" style="edgeStyle=none;html=1;entryX=0.373;entryY=-0.053;entryDx=0;entryDy=0;entryPerimeter=0;strokeColor=#0a0a0a;fontColor=#f8f6f6;" parent="4" source="17" target="26" edge="1">
          <mxGeometry relative="1" as="geometry" />
        </mxCell>
        <mxCell id="36" style="edgeStyle=none;html=1;entryX=1;entryY=0.5;entryDx=0;entryDy=0;strokeColor=#0a0a0a;fontColor=#f8f6f6;" parent="4" source="17" target="35" edge="1">
          <mxGeometry relative="1" as="geometry" />
        </mxCell>
        <mxCell id="73" style="edgeStyle=none;html=1;entryX=1;entryY=0.5;entryDx=0;entryDy=0;strokeColor=#0a0a0a;fontColor=#f8f6f6;" parent="4" source="17" target="29" edge="1">
          <mxGeometry relative="1" as="geometry" />
        </mxCell>
        <mxCell id="74" style="edgeStyle=none;html=1;entryX=-0.035;entryY=0.386;entryDx=0;entryDy=0;strokeColor=#0a0a0a;fontColor=#f8f6f6;entryPerimeter=0;" parent="4" source="17" target="69" edge="1">
          <mxGeometry relative="1" as="geometry" />
        </mxCell>
        <mxCell id="97" style="edgeStyle=none;html=1;strokeColor=#0a0a0a;fontColor=#f8f6f6;" parent="4" source="17" target="95" edge="1">
          <mxGeometry relative="1" as="geometry" />
        </mxCell>
        <mxCell id="17" value="" style="shape=image;verticalLabelPosition=bottom;labelBackgroundColor=default;verticalAlign=top;aspect=fixed;imageAspect=0;image=data:image/png,iVBORw0KGgoAAAANSUhEUgAAAIcAAAB3CAMAAAAeq6MhAAAAq1BMVEX///8UtZoWvcwbwmMWn8wAtJghws8An84DxNTi9vi64fH7/v0MwV5n2JOm39MAv88Aw1uR4LAAup142eLs+PbX8ezQ7ujG79gAx1sAw1Sh5rv1/Pji9fEcymgevKHI7vKJ18hd0d3F6uKw5+1rz7zX9Pa25tx73aHc9eZB0ntU1IUuzHDB7dHt+vKu58OG4ahLyLGL3OWf5Os8zdtXt9x5xOGf1OnT7PWZ39I5700vAAAFiElEQVRogcWaa1viMBCFoVChW5ACVVAuiigCioK4q///l22TtKWXzGRC03K+7Ep56mtyTmaStlYrQW7/vozb6mrX9bzXyaUpautNp9HwtusLY4xmAUaj0Xl7vyhGf9wQ6oz7l6OYdL1GLK+7uxDGbpPACIbkQiYJrZEAmV3CJPdZDDY3lZvE7Xo5CgayrdYku21+MMTcbEYVYow2AEYA4n1UhvEhscZJ40+3Goz+HULRqGyVXyswWICrMMkrNimhZuW3AiNpYHMmKb0V6BKGg83NplyTvJOGg4GMS13l4ZUjJ69fXoA/qMPBQcprBd7ow8FA3koySf+uk5AapDMuZUQm3ZSUc1TaguampIpwVY2RC1X/UJU18TvUtp1tOb91dZ0UXxvWM2w8vM8yMKZ2So8c5B0tvqXY9NmuJ2X/8k/vsdB0Zuar3VMao14frPjnaGg6XdMY/ryelf3Er2yxEbkz3a3+Zocj0HzKruzQ0jczu7JP5xIOe++za2hoDG+tniUYAcizCM24Ko5bKQYD4ZeR0Jjl2AMcdfuRX/8EQYxyrCCMKL0TML0mOSZ7ECMAuWVfAUNjkkOW2dPMhOn15CAGOaSZTYLw9I6k6TXZgsgzmwDZ8/TKWmiTxxC3AxwDCU1nY7A9BTObAOG1N3dG5L0a3MAgmT1pcM1B0qEZm9xsS+qsFITX3mSfaLhXf6QMRz2qvafQGN5nE4cjrr1RaIxvKXNtGAzCvy9K3p35DpnkUw4iau+rV9KZIdUh4TLibr2SzlBV62ksUXvXXdOb/MOQ/+MSVrIQ5MYwAZO/sKyl+B9e6BKamwdxjpZl9QTIDRXE3k8NYzxcWUztF/7Tk7LWRSDPZs/Elj1L6Ojwn68102tIhwgjABF/oGZ6jchdWAktxGfk9NorQxjcoSf1DgKEnt4nIxgPaYw4NOT02kbSu2xbWfUe+JUpOTTz4qE55CjOSe++IIg/7Mk4rCuRXo3aWwjEWcgxgtDopve3CEbeGrFEydOovddnY0gcmvBqCFJ6et0vaE5CkC/+NZ8KYms2Ac5QCLRGDCLSe0PunMW+lzoMC8WvP6nU9NIxzkkvGeOgmo2USqu9D1oY8TJiuvY6V3oYliVqLzk0tPT62cpKkG7nTEmvjkcjRU3AgNwEKDtnaWlVKkyv+pQoAlGlV9ejka7Mds5YUcOlnV6s9p7j0Uiic9YAQWrvOR6NZa5z1ltHs9KtveC+91yPRgpnpmjtfTnbo0JtJ7yRRnolTy71l/OMlvGtitRejZZDrkXiZuiziBTIo1mPJmaF6+zOeVkQo7dM3Y6eXvs25dGCGKlZYZqcdXzmFFhHudKzwqR4TpTQqfYW9mhmVrjOSG9Rj0adYVrX9OMzTY/22oDkexLd9FIXsN6XA0iKoV17qRxD3WODid7hN5HjqH96QU8vq700jnw0CaKfWu19Gke4oa45fwDJQTTSS+IIzylr7ncLEABCrb1BeCkc0Qrxt9WEBMwbMb1B30zgiMzxB8ZofQM+poUmSIyaoye2SbUfGCMA+QuYlQYyVXPE5cPBOJqtf3IOUnqDIqPiiE7j8HlhID9yEELtZTVGxXFMlI9vHAQ4/CK8HfGr5EgtYKhDAq8CFlGml7VlOEe0gIX6h4NAXlWll21lcI6v9A19xcwAy5mi9vLn7yhHtvFUWLXZBLyKP7rirRDG0c7vuBQDAlkE3ffairovK7I+PiCgRbC3NQZTlCPj0VC4VcHlrHYDple8JwJzHOQ3xGem2YS8ukLtAXPkPBpKYdVWE6h44MyIQyqI4wg9GvjBhwO0KvgajXiZGOCQm4NJZRDtNWTgwxyyPRqN4xsaRzC58xrMMQRuVkObsiaSFx/KS7ihk3IcYQxVXqDGHix24gHEf3Q2koPIBmgBAAAAAElFTkSuQmCC;imageBorder=default;" parent="4" vertex="1">
          <mxGeometry x="306.36999999999995" y="276" width="89.63" height="79" as="geometry" />
        </mxCell>
        <mxCell id="20" value="" style="shape=image;verticalLabelPosition=bottom;labelBackgroundColor=default;verticalAlign=top;aspect=fixed;imageAspect=0;image=data:image/png,iVBORw0KGgoAAAANSUhEUgAAASwAAACoCAMAAABt9SM9AAAAkFBMVEX///9zp0Dv9ep8rUpxpj1sozN1qEFupDdrozL6/Pj9/vz0+PBpoi73+vR5q0fo8OCewX7a589/rlGOt2e91KiItF/J3Lfd6dKjxIWWvHK30KCLtmPk7tynx4uuy5ODsVfP4MHC17G806bS4sSXvXbA3a+w0ZqyzZrU6crl9N/m7t9knySXvHRfnBTv++ysyJS6et1DAAAHuklEQVR4nO2di5aiOBCGBSsWIHcUREW07Vl3u3tm3v/tVrq3dxQjaoImlHwPkAP/qapUVW6DQU9PT88XzvhtuQzGjurv0B8zDacxIOJw+joxVX+N1mShbyGAsQcAGeRb1V+kLWa+V8o4BKwyU/1VWuIVLhongPvRO2MdJ0WOVBWIO0/11+lFNLWAr9UeNkz7qfF/lq/svFSfvriIVH+jJoxXcMYDD+RiYaD6O3Xgh39Rqs/QBX/Zqj9VNVnZ7IEHxoX+WvXXKiXI3Sul+pTLfeKsy9udSxfOyzV7zqzLSUfsNqkqEF+eMOv6e9GQWTXB4h+qv/3BBCGKSWVUaUT+TKHL3hk3BqtjkD1P6NoHK2Gz+pYLX1T/xUNYlrekC2dhT5B1BbNWpDKqNCKhHbq8+a2ZVRPoFmPVf3Q/0lggs2qUa/RCtGDMEsHMqgFg5Vr1f90BM2QteuCBXFa+VP1vLePcXAbeIteMVOhKoeVgdQzihEzfOUjaShfOYsU0+s5ma5lVE+ASCF3e/LqusTyIxS/VfyvH+uqucRtyGZsOh67lHTKrJsAquxq6vDtlVo1ysaSLS2bOy/0yqybQXXWu77yNLRVSfcqFqeq/v4lx+Ih04RzgJv+oVuB6zFiJB/4B/c4E+mCoWKtq+bojapmxQhfsmFrOVLldVcCoCwtAq3YaDNKJBy5UK3GZpXTKAJVOUKxkndnVP4P4kLUIiCczgHwwKCRHgpHulWIm7YRsN7BjVjpeLmta1ka1GheQNgdrNB/Y8xCXM2nZYapajWZsX84crOn6a23LdgpXViwD9S6qM6k/BHbYS0+lUxA2UafEFUxkfAfgOJFcyzoi5opkuA6pkIX1Y00z2QAYKxHhWqYSIQtX9dECyQgIvtatLYmyEPzT+kQybGle8gzFxcLwdDhT0rTIimVxqpNerDO4nJ6KdPZAVCwsOcFYZr6oIGpZEHN2pQUjOa2oWhbjOKHzKuuFNC0LYk47JZVvI9IUi1OYbEG+l09TrNNuStqCVjTd0MDab43DVrbfkBQLklrMCltZ/adpWazeAU7b2axEUixrXRtoO2xjqZaoZdV7mo5nz1tYrCUpFtRXRL3M3PVinYHNjweyY2ghatF0QwP82kjzcpf0SSkfxjmZakqXO0Qt62Q69NKJ9JI0WcuqT4de8o5M/Ij+F0Qt67Q49Bb5JAolZ0SaYhnWvD5W1Q3cSIYtomJx9ry8zRLJVilRN+SJ5X1YINmnoSrWSS1dbU/1p1I7n8laFq9Z6u3jllTVQ1Usg3eKxDHfZCZEspZlAHDU2mdb4iMStiwD6r3lPabc/j/CYpWchdZVH+D5Yi04i4dm74Z8saa8jeu/+wDPFcvn3fwRyFQ8dMUyXN7VDI5ED5CwZRl4UkxXyBTThMWChHcblkzDlLBYBvIuprNL4UEpu6GBBW9QiYKHslgG4522Ec9LSVsWd3/3YMWE21qkxTJcTtRaDeNYbI83bcvibsR1PNsevwqNTFssg804wwbmWOwIFXGxYHRqWvYCRr0b8sTiHHtzFqLzIXGxeD/oiGZa1C2Lm5jaoudSyIvFS7U270K3vNG3LN61+N52K3SDCHmxTk7/frEUMS3qYrE1Z9xJnovsXibvhhavlk5dseqQuFiM26URPCBG1LI+DQcMYPxbr0S7NBTFQubH6EJpxPy7yseCB8spWhZ+RGMviEzbPHNphfCxJ3pi4culW8Ey0XsEyYnFb7wfYy/6rkMFrydTI1qJbnmgJta5jP2A9D1yhBycnGVZF9+3dxI0xE4f6i2WwHqoe+muOa/qZglpBSOt35gROG7DLW/+YG9K4WVDGGr9OJbA6VOr+RLk9KfEBmi9r5NMb88ecdc44ljijhXkrRTpg8B+WRg2pKRmJlzq7GEX5w61CCSP9RO/33jZtsCf5kB8Mxto/hDPRKCKw8ODKM63nWWxa+HekwLxW0h43XydEHIaFu5nxGU1KzqDZbxbR1m0+fjvFQwUP1fO2zehF3ORBgHGy8Ad5cUs2UQMGSK2cBON5le6VnhCuTaMYgBAhBZfy7qY7WpAJNYBbv3dC6sTL03v5K/bboEOOOEnhbLHnA604m581pEWrnJ/Gq2qElHp0ztghbo/X3FI9MhHIOugr/+7KEfYil7sq7LYDr6UbBYqXqLr7EO2b4uHy2XFa9V/Lczaf2joQpx3ZxI8xXmBh4UuZB0MVseYxWMiPbBc+ybDFWSPeCCZlR1LF86S+u0843eWjgerY+z5PX0R3FDrxdSbMV/vlUaAu+hmZtVEVt4jdAH6a9V/dhfSYetZF8K8SyXzLXi7UauhC9iMVrA6JmjnTvwvqawFhcyqiaitgnFfBlL1wD846aiFrGufWWn9wlxr2CtX9uFC95VysDrGfJVJI8Aq6WVWTURTUbmAda1rLI+9iYVCF452mu+NuQvj37cXjGCFHViUvwvBjQUjuFPqmVUTN4UuNkzpZ1aNTK71RbRWz5FZNfGrsK6QC1j+jHH9lOBi1gXWtHkD+DOxnTbW1yzePHmwOsKenG/TI+66vsTVNuOCXzCC+7SZVRPL/DTrArfsgxWfbewebexCF07fauj5JpuBxRCqncvMglzz4yTKsbPNKk+SpJhEfVjv6enp6Xk0/wIGK4LlPjG/8wAAAABJRU5ErkJggg==;imageBorder=default;" parent="4" vertex="1">
          <mxGeometry x="480" y="30" width="140" height="78.4" as="geometry" />
        </mxCell>
        <mxCell id="25" value="" style="shape=image;verticalLabelPosition=bottom;labelBackgroundColor=default;verticalAlign=top;aspect=fixed;imageAspect=0;image=data:image/png,iVBORw0KGgoAAAANSUhEUgAAAOEAAADhCAMAAAAJbSJIAAABUFBMVEX///8Av7P+0Qo1NTUAqeX5sRABm48xMTF2dnZSUlL957Wu0s+u3Nn5tSP+0yAWu7H+8bRTwuwvnsQApuU2MC0AmIvq9/b+/fj/7q3789X5sxT8yhCbm5shISFFRUU2LikDq59Qx7/79uf/+eT57cT/8Lr56rr855zozWLvyiP60gTnxjDt1W/67MP+89H18N323X/qykT01Fvw47Hv3pv31Ev93mrm3bn1zi7u3ZbrzVnr5cr33rTnt0Xuv2L7wxLu0Z7iumrjtU/mwnvuzpH6ujv6uhP+1zjmukj7wC30vVT1wmX8yzny34zRwHDk5ORyho1ctddfqMOz1+MTirgie57Q6PIwYHEpsOWa1O0wUFu+vr6BgYEmbohoaGgleJUSm88zWmhqwePJ5vZUY2g9krCp2u7B6OZ31MxsubGNysaR19JNq6K05eGBwLtOqKAxCk3BAAAE5UlEQVR4nO3Z21cTVxTH8SnJeCMSNTKTpIhObhRKgYJBRarYVqO2lgYtQrX2bgZi6v//1jMJpCGXmXNJuneyfp8HXYun+a49c87JjGUBAAAAAAAAAAAAAAAAAAAAAAAAAAAAAEwo183l85lC8Uo6UCwWMvl8znWpL2tIcpmV0sJni1Ndlj5fTn+xsjr+lZnS2kx3XIcvF0qr1JdoIpN+UQ7Ja81yfWEjR32hetzba5F5LYuba3eor1bD7fWwu7Pb3c0C9QWrce+VVfoCM1v3qa9aQaFn5ZSymKG+cEm5La2+wPI4bB65jSXtwKmprTz3xtz2V58aBAZjLLBuXH1g29mHZo2VBb7bo7vz3A48MRzj5gp1yQDug6xtDyWxUqJu6e+R3WaaOHOPOqafr217eIlTy9Q5vR7ZZ2RNE9PUQV3cbdsebmKF10HV/aY7cMIS3W+zvYXGiWU+m4a7/bhP4BAS2ZzEBwSar6hlJqeb+4MCzRPXWZxRc5cHBg7hdENdJ7hPQgJt+6FZ4VSZus+ynoYGmh9uyPeMO+GB5kPcpC58HFVouGWQn093+m31Zz0z6Ftaow50n0cG2tm72oHlNPlusRO2U7SHWNEdIP2Zxv1OItC2v9cKrNAPUBzXop/C5n2q+v478ILDiS0vN0KNxWbpBwbzEy7ZlyVVZqRVKpX1DeqyE+7KJVmlK3KKxcxYfzAFAFC0++6Cih+rV8NU9/ZeOtRJXeZunFdx/VUqTLz5T5VV5Pz5mIqbP8WjpQ72GTXeUAqMXX/9m0RiPFXdpw47tatYGJuXKhRjfEmddmJOtVDqNg0cvKdua7mo9hiK2/QXycLUwSGLh1GxTxT+LFkYT8VZTFF1hOJBlC0UNyqDIe6qF96UW2qaU6xS91nWG43CV/JDTNEPcU6jUHYxDQqvUQdabzUKf5UvjKfI39NcUC+U3i6aheRHm5EXHlIXvtMofK1QGL+KwrEvPEDh2BeS36UjX0v3Jr6Q/HfwyM801IEjP5eSLzQj/23xJ3XgqH8f0v+00CmMKRSSn7stjfc0Men3NAyO3QHFV95KGz6H1zQaG6L8ZsHktfcb1TfCMbmllMvbUkv9u8Xvkt8t6PeJU4oTlLpJU6lDHndo01u174eRN2nw/fAPPgMUducvqvjr72vhqu/3HS5PIADA/6g2LS0hp8ZsOZ0+Jyspy/OFOptM52hWLvDWJ0pE5zF124ljycKkWmGzsk4d1+R8kEtUDxQ8Fvfq8egCgzEyaJQZ4qziU9jZWKMOlBuixlPYTmxQB1pWdKD+CAP0C04i6ja9ZTBCHonnIhINAxkUOqF9BstMS5K6T3BCh2g4Qg6B4VOciMCwE7hpIIMtv8n5Z0Cg6UPIYDc84fTf+E0DE9RdHfr9jjJeRvlMMNCbaBxIvxGe5XycHW6gz2WV+c/ZnxmmgR51Th9O5/ltEo4yvZyPQwvk9gy21T4MZaPn8f6iP7H3z5oO0EswDhSmjwwDfQZvLsI5vklfssF7gE1Ow9MO9NgPsMVJ6C01SeZPYKeaxhhZvB5VoNzI8JQW6Ug6Mjkuz1+PmicT6Y3j+Nqcuu+FLTtJ3x+j5WUAJ1Gv132/a5ye54s/N2pjn3fKcZxardFoBJ+yxX+ijNn3bAAAAAAAAAAAAAAAAAAAAAAAAAAAAAAAAOFfUlDsNhObr2AAAAAASUVORK5CYII=;imageBorder=default;" parent="4" vertex="1">
          <mxGeometry x="10" y="425" width="80" height="80" as="geometry" />
        </mxCell>
        <mxCell id="28" style="edgeStyle=none;html=1;strokeColor=#0a0a0a;fontColor=#f8f6f6;entryX=1;entryY=0.75;entryDx=0;entryDy=0;" parent="4" source="26" target="25" edge="1">
          <mxGeometry relative="1" as="geometry">
            <mxPoint x="100" y="460" as="targetPoint" />
          </mxGeometry>
        </mxCell>
        <mxCell id="26" value="" style="shape=image;verticalLabelPosition=bottom;labelBackgroundColor=default;verticalAlign=top;aspect=fixed;imageAspect=0;image=data:image/png,iVBORw0KGgoAAAANSUhEUgAAAOEAAADhCAMAAAAJbSJIAAAAmVBMVEX////wTpg0N0EAd8z5w9jvQZP3T5uDP2IrNj63zusAb8rP3vEUGSn3+Pj60eGKi48qLTgAdswgJDHDxMYZHiwnKjb96PDvM41HSlJBRE0vMj3d3d8RFyf2Q5b97fP/1uavepJ8L1jSwMgfLDUUJC7Ky83n5+h2d3yen6Kur7KRkpY4O0VmaG5TVl2BgodrbXMABB3s8vkAZcd+gFljAAACY0lEQVR4nO3b2VLbQBBGYRY7LBHJREiAO0pIQkDYYLK8/8PlKlWuFBeuoO6/PZzzBl9JmlGP7L09IiIiIiIiotfZxWyXu9hCOLuc726Xs22E8/3dbY4QYfoQIswfQoT5Q4gwfwgR5g8hwvwhRJg/hAjzhxBh/hAizB9ChPlDiDB/CBHmDyHC/CFEmD+ECPOHEGH+ECLMH8LXInzBf2beqPu0jfDzu//u+suRuK/fthC+pPc3x9q+n3sLy4G2tn7hbfXCj7ULu7vqhWfVC52BcqFd1S4sY+3C/r52ofuGLxc23puFXHjgDVQLzX2hUQv7Ze1C/8dQLXxwB4qFZVW7sPMeneTCgJtUK/R/ZVMLB/+VVCu0xwCgVNh5H0Kphf7Dr1roPziJhbYIAQqFXcwl1AltHQPUCYeAFzapsDwFAWXC3vuoWy2MWmZkQv9zYLHQ/E/YxMImah1VCRv/AzatsA3bKETCEjIVCoUlZmbSCW0RttVrhPYQDQwWlvArGCzs1/HAUGH7I94XKmwCPlIohRY4TkiE/VXE+bZOaIPmDg0TtovIYSJeWJqIT0w6oQ2jYBOME5bmUXiD+gv7YVT7PIXWlpVqh9jMSVjaZhTt8P/mILS+s/Fcu7xsNKHQrJS+G2xc6h++jZ5+NpPU9bZYj6vlbZpr97ezyVJLiIiIiIiIiCbv7ZT9Umue63TCfp+oNc91+OFwsk4RSkKIEKE+hAgR6kOIEKE+hAgR6kOIEKE+hAgR6kOIEKE+hAgR6kOIEKE+hAgR6kOIEKE+hAgR6qv/V9AnU5byl+xEREREREREAf0BkI7VOPQs4F4AAAAASUVORK5CYII=;imageBorder=default;" parent="4" vertex="1">
          <mxGeometry x="160" y="605" width="75" height="75" as="geometry" />
        </mxCell>
        <mxCell id="21" value="WAF / Reversiproxy" style="text;html=1;align=center;verticalAlign=middle;resizable=0;points=[];autosize=1;strokeColor=none;fillColor=#050505;fontColor=#f8f7f7;" parent="4" vertex="1">
          <mxGeometry x="50" y="30" width="130" height="30" as="geometry" />
        </mxCell>
        <mxCell id="22" value="Identity Provider" style="text;html=1;align=center;verticalAlign=middle;resizable=0;points=[];autosize=1;strokeColor=none;fillColor=#0d0d0d;fontColor=#f8f6f6;" parent="4" vertex="1">
          <mxGeometry x="280.03" y="30" width="110" height="30" as="geometry" />
        </mxCell>
        <mxCell id="24" value="LDAP" style="text;html=1;align=center;verticalAlign=middle;resizable=0;points=[];autosize=1;strokeColor=none;fillColor=#050505;fontColor=#f8f6f6;" parent="4" vertex="1">
          <mxGeometry x="570" y="30" width="50" height="30" as="geometry" />
        </mxCell>
        <mxCell id="33" style="edgeStyle=none;html=1;strokeColor=#0a0a0a;fontColor=#f8f6f6;startArrow=none;" parent="4" source="88" target="25" edge="1">
          <mxGeometry relative="1" as="geometry" />
        </mxCell>
        <mxCell id="32" value="" style="shape=image;verticalLabelPosition=bottom;labelBackgroundColor=default;verticalAlign=top;aspect=fixed;imageAspect=0;image=data:image/png,iVBORw0KGgoAAAANSUhEUgAAATYAAACjCAMAAAA3vsLfAAAA3lBMVEX///8AwrMAgNUAAAAAhd4ADhgAfdROmt05ybxPzsI1QUgAvq4AddIAva0Ae9QAeNPL4PSc4drI7urU8u92ruM5kdq51fBpp+EAAA71/Px/2dAixrjh9vT4/f3K7+vA7OcOhNaKuueuze3s9Pteod+gxerb6veVwOlDltva6fd9s+UzkNo3RlEAFyYAIzsAM1UAP2gATH4AXZsAbLUAessAaa4AK0gAHTAAa7IYfsmSl5lfaXHU2t9JVF2Fj5cJGiWqs7obIylvdXne4uUqMjihpalvcHC6vcCk491n08k48ixWAAAFYUlEQVR4nO2ci17TSBSHMxMMKdMmlsKukGDLLl52vaCge9F1UURt3/+FTErR0iRcpufCOc33AuX//WbmnDlJCAJU1iPrx2i0fbC1/9v933H/vjuKt7aCKEqSNI0OHj3mTkHOMtou7CVdu3WfOwgtANqm6lK7v0prDkhbQdJdX50lB6etWHLd7VURB6mtFPf0D+5EJMBqK8VtcUeiAFpbccZFv3CHwgdem7XdX7lToYOhzSYj7c0IiraijVO+UXG0FRv1CXcyVLC0Wd0VFU2bTTUXBjxtqr0harPpn9zp0MDUprguoGqzXa19CK42myrte5G1RSPugDgga7OJznKKrU3p8YauzUZ73BkRwNeWaLxl4WuzXYXVlEBb9JQ7JDwE2mxX3/MsCm3RNndKcCi0KVxuJNqide6Y0JBo01dMabQl+9w5gaHRZi13TmCItKXKigKRtkjZDYtqkyrbpVTaurpe4KLSljziTgoKlbbogDspKGRnW8SdFBQybamq7z7otKnq3Mi06aoJdNpUvRBCVxJUlVI6bc+4o0JCps2OuKNCQqct5Y4KSavNi1abF602L1ptXtBpS7ijQtI2IF7Qtbuq3mhoL1detFd5L9rBkRftmNKL9TVwGrSpGoo/f3APkBcvD1+9Pjp+UyePOykoGyEG9w6Pju0lc5GuzzpwtE3VvXo7Zy5VVREQtZW8Pr4Qp+ybNVxtYfjX23NxI+6gsGBrC8MXR2vaml0KbWH49z9ryl44ItEWhof/cucEhkZb+I47JzBE2lRdEQIqbe+5Y0JDo+0/7pjQkGj7wJ0SHBJt6hYbiTZ1JxuNNm1lNCDR9j93RgTwtZ1wR8QAX1ulHuxw5AQGXVt1i8ZjhpzAYGvbqPzioOdyhqCwYGurVtHYmIwhKCzI2qqN7tAZ43YZkoKCq+1j9QdNiRuQB4UFVVvNlK3vpt6kb1NMbTV9bn5uzbg+fVRIELXV3Q5iM8PJ7t7wtNXNwWdb1IivCmjaPtb8WP7DmvTlhqWtdsSWmTltopcbjraN2lnRZG6xFd4k/89KFG31o6L+JWvGSb6aImj7VD8D3+yZy0ju3eC1NUwlc7dgTfRVAVrb+4YJ+M6itALBRQFW24fPDT+zk9VoM6RJQYHUdtokLdirtSZ4l4JpO/vS3L/WrzXJF1MYbWfvGhda0GjNmJgsJjTLazs7/Xb1g9C8QZrkjtf7u4STT8+/nn759vnaq+XDSueh4XDDZrzY5c5rk3xRQGXSvNaM6M4Nkzy70prgmoBJ/2ppRnLDi0YeX2tN9qwSheuXWqFN/vN5WIbXnGozbW0HMs+gcxNphbZN7r/0DjHoXNGrXdY25P5b7wzD+KbSWm0X7PTNzbZnq+0He8OOu420VlvRpY1v68yseknIx7vZ7Z2ZlW1A8sGwP4mNl7KpNqnt7iT2JTOm55y3sXNtUi9XnWVSLw93fF94tYkdHPFqm3DH94VVm9wnfrzaHnLH94VXm9gHfqzaxFYEVm2C30Nl1Sb2aOPdpNzh/eHUJnePcmoTvEdZVxt39iXg0yb3ihBwautJHRqV8GkTXBAYtYkd7E5h0yZ2ZjSFS5vsxcalTfB1dArXauPOvSQ82sQ/jWfR5mTXg4BrtYmd6l7Aoa0n+A4/g0Gb6MvoDHpt8g+2gEOb3Ocuc5Bry8SXgxJybZLHRT+h1qbDGrG2TIk1Um2uo+JcKyHUpqLzmEGnTdWnylTaXCZ7LrkAkbae8LHkIiTaXKzt+wMCbc5oOtXOQdfmjIKBRwVkbS7Tt9JKMLU5N9H6KRqWNudcZ6zlKlUFQVv5IVa8u6nmIlUHrLYs60x2x8M70Nl+B4v4rIFF/1OGAAAAAElFTkSuQmCC;imageBorder=default;" parent="4" vertex="1">
          <mxGeometry x="10" y="237" width="80" height="42.06" as="geometry" />
        </mxCell>
        <mxCell id="37" style="edgeStyle=none;html=1;entryX=1;entryY=0;entryDx=0;entryDy=0;strokeColor=#0a0a0a;fontColor=#f8f6f6;" parent="4" source="35" target="25" edge="1">
          <mxGeometry relative="1" as="geometry" />
        </mxCell>
        <mxCell id="35" value="" style="shape=image;verticalLabelPosition=bottom;labelBackgroundColor=default;verticalAlign=top;aspect=fixed;imageAspect=0;image=data:image/png,iVBORw0KGgoAAAANSUhEUgAAAOEAAADhCAMAAAAJbSJIAAAA81BMVEX////pR4s+vrA1NTU3pZXpQ4nsaJ1iyLz19fUXFxfoMYH+9fhNr6A3o5P1+fkano3oPIY2qZguMzEnuqv74es0MjI9uqzyR488npA0LC06saLwhrDnLH/4ydv0q8cdMSsoOTMkMi5CeXHp9/W65eCN1czrW5b0sMrqUJHvg673w9f73+rxMYY2RkJFS0pVT1JhT1dpTVhwSlp6RVuCPlmQSGSiVHOzVHvIR33bU4syPDo9Oz1LPEHOVIZMRUlrQFAXMiq+VH+MTWZuVWJxvbI+k4ef0MnL5uI/c2tBWVZZs6Y+Q0Kp39lAYl2D0slBiH4UAAafK58lAAAFt0lEQVR4nO3bjXrURBSH8e5HYNmy7VaMEqy2BcWitlqwrEuhVgQBK+j9Xw3JbJJJZjOTmdmZc448570Cfk+y/2S6y9YWx3Ecx3Ecx3Ecx3Ecx3Ecx3Ecx3Ecx33SbT+8gdFXgML9BL75YBtQOB2AlySfwwFRhNOvAYEYwun3kEAE4RxwZVCEyQ1YILgwOQacURThHHJGMYSwM4ogBJ5ReCH0jIILk4cIQEgh/IxCC+FnFFi4Dz+jsML5NzhAMCHKjEIKwd9GoYXJAA0II0yQZhROiPA2CivEeBsFFeLNKJAQcUZhhEhvo4BCzBkFEaLOKIRwivU2CiVEntH4QpxDvVJMIfqMimIK5z9i64oiCrEO9UrxhGiHeqVoQgozKoolxH4blUUSJpDf1JuLJER/G5XFEU5/wHbJoggJvI3KYgjnj7BVzSII6cyoKLyQxtuoLLxwSmdGRcGFlGZUFFpIakZFgYVk3kZlYYUkDvVKQYXUZlQUVEjjUK8UUkjkUK8UUEjlUK8UTkhwRkXBhBRnVBRKSOhQrxRKSHJGRds/fSlLimvhFbm3Udnk4OT09Odfzh4/+fX86eK35fK4kLo66b2Nyia3RqPRZ6uOjg4On108PztfvBjkUHsgrUO9khC2E9LL38//OBb3bX/EDvVKHcLaeXX6crEc9CrpzqhIKyyZh8+f9F1Laod6JbNwpXz2eLHUIwnPqKhfKJBXl0+X3UbKMyqyEq6u5NnieB1JekZFtsLydn2hPETIvo3KHIQF8uCydSGJz6jITZh3dP1SfiLpvo3KnIX5hTzMb1Zh3Cc+oyIPYW68OiuMRA/1Sl7C4jrmRqKHeiVPYTE6f77B/sdb5S1MR7PdVw+w//kWeQuz1+PxbPYX9r+/P19h9u/eOG/3Nvlb1VOYvRXAwvhqB9tgzk+YvauA+a06/hYbYcxLmJ6Mm9G+jD7C9OLuXos42yX8afQRZq/bwOIy0h1VD2F2fw2YE/+meqe6C+WMKkaid6qzsDmj/4s71VWYXmt8YlOxNV05CtdmtL2pY4Ivqo7CjhlttjekR3QTds5oEzgcktsbJ6FuRqty4PAOtXc4F6F+Rld9MaRIdBCm1zOTb7YC5sR/sFGt7IVpaprR8ezesOrOd9iqZvbCnhmVQGJEa6HFjDaIhG5UW2H2vn9GaRIthanVjJIk2gl7ZrT1IayIVB4alsK7rsCcSOTtxkroMKNNIo13VBuh04w2I0G0EDrOaDNsXVG/MH1n9K3PaOM+vYnN27IQphfmt1HNh7AkEnhm9As9ZrRBxH9m9AnLb2B06VemCn1teoTeMyqjLdxgRuv79ANl4QYz2iAifxRNwvTCuDLmGW2E+/d+kzDbaEZluE9Fg3DjGaVxn+qFNn86tCViPjK0wgAzSuM+1QnTEyNwZjWjJO5TjTDUjNZEcsLi90CGXIGYz/1uYbAZlUS0v2l0CgPOaB3a2HQJ+2bUbWWqi4g1Nh1C5fdAYYBDtEPGujBNNzjUmy4i0nl/XRh6RmU4b+BrwvAzWl9EnG+kVGGMGa2JKK+nirDvi+xNgEgXsS1MT40+7xmtiBifxJYwHdl+ke0pxJjTltDvGxiXEC5iUxhvRjEvYkMYc0brMIV2vwfaMIQjRi00/axy7Hyo1wZ/xKiE5p9VBlkZEfxTvxLGn9FSCP7UL4XxZ7QORxj0T4fmwE/CQtjze6BQK7MKemsKocfvgTYJ+L2mEGZx30aVoG/TXNj76/TAAd+mk1sBvsh2C/gMNfkvxp8OzULY23RyCA2Evk0nu0Zg4JUpA71Nd0zC0DNaBnvAMArDr8xKCPpuahTGAQJ/EE3CWEDYI5RBGGNGSyHk80IrjLQyqyA/iFphTCDoIVEnjDSjZZAvbhphXCDoE7FbGPbM2yEE/Mvwzt7tjm7GjtJ/buM4juM4juM4juM4juM4juM4juM4juO4GH0EfxrVdIcYGqwAAAAASUVORK5CYII=;imageBorder=default;" parent="4" vertex="1">
          <mxGeometry x="150" y="390" width="65" height="65" as="geometry" />
        </mxCell>
        <mxCell id="70" style="edgeStyle=none;html=1;strokeColor=#0a0a0a;fontColor=#f8f6f6;entryX=0.75;entryY=0;entryDx=0;entryDy=0;" parent="4" source="29" target="25" edge="1">
          <mxGeometry relative="1" as="geometry">
            <mxPoint x="120" y="370" as="targetPoint" />
          </mxGeometry>
        </mxCell>
        <mxCell id="29" value="" style="shape=image;verticalLabelPosition=bottom;labelBackgroundColor=default;verticalAlign=top;aspect=fixed;imageAspect=0;image=data:image/png,iVBORw0KGgoAAAANSUhEUgAAAOEAAADhCAMAAAAJbSJIAAAAw1BMVEX////zvRkjHyA+vrA3pZXyuAD++/L0+/rksiIAACAiFRgvaF84qZkluaoAAADw+fhWxLj42I/0xUccno1KrJ7ytwAaFRYIAAD31YT657388Nf42pXp6ekXERN2dXUPCAra2trR0NCWlZVYVlf0wTP1yFX2zGP30nn54az768f99eP0xEP53Z/2zm399+n65LLirQDnz4y5uboAABgOXlw1MjNjYmKLioqura4sKCmpqalTUFFFQ0Tt7e2fnp58e3tKeHFQB+ajAAADg0lEQVR4nO3a61ZTMRCG4aS4iwfYitoWhJ5LAUHFKgVboNz/VZniD8VFu5PMdGUm63uvIM9KdpoEjEEIIYQQQgghhBBCCCGEEEIIIYRyrD56/2zH45O907PPqYfHUL1hV1Q8dr5/UE89Rlr1YpXwL3R0qHkuK4V/lKMLtTPpJVwiG18+pR5rXL7C5UQeqzT6C5fI8dfU4w0vSOjW6n7qAQcXJnRGe5Z6yIGFCq3VNo3hQluMVH2NEUJn1LRSo4S2cZp63P7FCW2xl3rg3kUKbaFmv4kV6iFGC21xmHrsfsULbfEt9eC9IghtQ8VJnCK0hYZLI0loz1MP3yOaUMNuQxPahvwXHKLQjlIDKqMKi4vUgqqoQvn7KV0o/fRGFtqG8EmkC4uT1Ib10YXSv0QOoeyffQahLVIj1sYiFP0wxSIcp1asi0Moe5nyCA9SM9bEI5T8k8giFL1MmYSCr4lMQsHPbkxCwRcMHqHkJykmoeCthkso937BJZT7/M0llHuq4RLK/bngEsp9VOQSyr3nQ+grlPufCxBCCGH6IIQQwvRBCCGE6YMQQgjTByGEEKYPQgghTB+EEEKYPgghVCC8fMnR5fe31DYlnJSvOPrx88PTdoPbFHFS1jh6/Wbnxb/tbIW2u70hYR9C9cJe9sKj7IUGQv3Cq+yF02buwutu7sKbVu5Cnp98ycK77IWGAyhb2GnnLmTZakQLWc7eooUm+zlk+RBlCzkeMmQLOa4XwoVD+uFbuJBhmQoXMixT6UL6bipdSL9fSBeaX9kLZ9RzjXghea+RLxwQX2vkC7eJkyhfSH1yUyAkfokahAPSdqpBaEjnGhVC0vlbhdDMCZcoHULK27AOobmPJyoRmtvodapFGL9OtQjj91M1QtOJPLzpEZqruE9RkTDyU1QkjPxDjSZh3G6jSmhmEURdQjMIJyoTmutgojZh+CyqEwYfwvUJQ3dUhULTL0NONxqF5qgW8HKjUmjM1H+lKhUG7DdahaZX87xNqRUas/CbRsVC06/5PIZrFi4PONWbqm6huZtW/jYqF7odZ15hVC90n+N6YwZCN4/TcvVPRxZC9z0O2qs2nUyErn6nfBaZj9A1ccju/99kVkJX735Ylq12M1/hst7NYl66Wt12u9nMUfjYXW8yGyw60+Htw8envQttS6YQIYQQQgghhBBCCCGEEEIIIYQQovYbLrSyO3oT5OkAAAAASUVORK5CYII=;imageBorder=default;" parent="4" vertex="1">
          <mxGeometry x="155" y="220" width="60" height="60" as="geometry" />
        </mxCell>
        <mxCell id="40" value="" style="shape=image;verticalLabelPosition=bottom;labelBackgroundColor=default;verticalAlign=top;aspect=fixed;imageAspect=0;image=data:image/jpeg,/9j/4AAQSkZJRgABAQAAAQABAAD/2wCEAAkGBwgHBgkIBwgKCgkLDRYPDQwMDRsUFRAWIB0iIiAdHx8kKDQsJCYxJx8fLT0tMTU3Ojo6Iys/RD84QzQ5OjcBCgoKDQwNGg8PGjclHyU3Nzc3Nzc3Nzc3Nzc3Nzc3Nzc3Nzc3Nzc3Nzc3Nzc3Nzc3Nzc3Nzc3Nzc3Nzc3Nzc3N//AABEIAHYAkQMBIgACEQEDEQH/xAAbAAACAwEBAQAAAAAAAAAAAAAABAMFBgcCAf/EAEQQAAEDAwEDCAYIAwYHAAAAAAECAwQABRESBiExExQyQVFhcYEVIkKRobEzNFJTYnJzgiOS0bLBwtLh8AcXQ0VUdKL/xAAZAQEAAwEBAAAAAAAAAAAAAAAAAQMEAgX/xAAhEQEAAgICAgIDAAAAAAAAAAAAAQIDEQQhEjEiYRNx8P/aAAwDAQACEQMRAD8A7jUbj7bfSVv7BxrxLcLbXqnBJxVbnO89dA6ucPYR7zURmOnhpHlSpUBUS3scKBtUt37fwFRLmuD2/gKRcepdx6gsFXJ9PBzHkK+empCDv5NXiKp3HqWcfqRpW9omx9Mwod6DmrOJcIsz6B1JV9k7j7qwC3s1Gl1aFpcbUUrSchQO8GoHTaKr7DLcm21t576TJST24PGrCgKKKKAooooCiiigKKKKCvvRKY7agcEOD5GkgorRngabvn1VH6g+RpJnoGgicC+rB8DSzgeG/k148KYe66TW84jOhxSfA1IgdcWnilQ8RSrjx76cVc5rfQkK8wDUYv1y1aecDH5E/wBKBEqcX0ULPgk0CJKX/wBBzzTirIXOa705CvIAVKhxa961qPiaCrRbZKjvSB55p1qzlA1PK3dg41Zs1LI6AqBYWNITASlIAAUcAVYUhZfqI/MafoCiiigKKKKAooooCiiigpNrpTkO2IkNx1PpQ6C4hHS04OSntI7KrrRdYNzjlcGQhzA3ozhSfFPEVd3z6qj9QfI1lZ+y1tuCucJSuNKByHWDpOaC2epB7rqrVb9o4Pqxrq3LbHBMpGT79x+NRmXfU7n7ZHdPay/p+CqBp6lfbqNUq4L42aUD+FxtX+KvI9I51Cy3D+VP9akWLXCnmeqqQSbincLLJz+N1tH99e0yb8rczborXYXX9fwTQWt2vUayx21vpdefeXyceMwnU6+v7KU9f91U8vaG+hZS/G2ftqv/AB512JeH5ghBAPdVE7KuEeVf7vNdQqdE5G2RFNp0pZ1p5RxSRniUkDPGsr4k5O8nNaMPH/JG5lny5/CdQ6tadqrxHjrSqyRrm2nKtdmuTb6vNCtJ+fhXh7bK/tuYkM7N25fXGlXNS3kdytCCAaxkJw2XZw3Bk6Z9xcUww51tsp6ZT2EnAzWfHdVleLEzPfTi3JmI9dusm/7Ty4TkuPI2cjRmum6wt6ce86UhOkeOar4u197Usc3v+zc5R4Mvx3ohV3BZJA8xXPYUuTAlIkwnlsvoO5aDv/1HdVvdWmLrbTe4bSGn0LDdwjt9FKj0XEjqCuBHbSeNET3JHImfTqmz+1TdxmqtlyhvWu7oTrMV4gpdT1qaWNzie8b+0Vo64PFnSXNmZ+VqU7ZQ3Ot7ntsqS4ApIP2VA4xXeKy5KeFvFopfzrsUUUVw7FFFFBW3z6s3+oPkaSa6Fe9rohmWxDbb62HUuhTTqDvQoA48R3VlG9oLlZ/4V+ty3GxuEuIMg+I/34UGiepB7rqOPf7VO3R5zWs+ws6Fe41I7vGRvB6xQIvUp7dNvddK+3UhtkDFPM9VIs9Qp5vcMqwAOOd1BjNoWNLW0rR4omxJvD2Ftlr+0g1kK6BenIku/iHGkMOuXK2vRShKwTyrf8VrPuc99c/rfxJ+Mww8mNW22MuVaolm2eTMtxlLMYkFbig22C4dR0pwVHPVmkdpYdrcgtXOyhKWhIVGdCAtKFHSFBSUqJKeJGO6otpci37Pgb0ejgQe0lasiviv4GxCEublSrkVtA9aUI0qPvOK7iutW+3EzvcE9noDVzvkKE+pSWnnML08cAZIHecY8607Fytr9rvDNvtzEdsWxZdPJELC9aQlOoqOrec5wKxsOS5DmMSmDh1hxLiPEHNbBUJCnr3IhIKoVzti5McDqXyiMo8QvIx3imWO9z/dmP10S2UhGRbyyRvuVwjxE7uKGyXnfLSjHnXbKwuxVp5K4oSRlmzsGPqz6q5TuFvEdukBCAe9QrdVgy387zLdjr40iBRRRVbsUUUUFbfPqyB+MfI0i0MtkHgRvFR7VXNqAGTIylkqwpWOj3nur3GWlxkLbUlaFDIUk5BHjQVU+x2yVnloTJPaEgVUq2bt7RPIc4Z/SeUmtO910g910FGq1No/7hdMf+wk/NNeRAj5wbhdc/nb/wAtWD1K+3UjwLU0vjOuih2GSE/JNSp2atrpBfQ69+s6pfzplrhTzPVQVlzsLDNrU9Z4jaZ8NaJUbTuKnGyFBOfxYKfBRrC7RsMtzxMhb4E9HOoysY9VW8p7ik5GO6uuM1nblZJFvcek26Zbm4C3TIXHucXlm4zp6TjRCk6cneUndnf11Ziy/jttVlx+cM4htpmxwLVeINxnTHneUix7ezqfiNq4qWTuCVHfpOOs9W6Ta+3xFRQbXO5dmzNtRXmSjBQVE+tqBwolQOccCKuLFEvk6DJbalR7rDefW6lcp12K8So79Sm8hSewYGBgeCN8RLt9pv1mfjwIzEdqFIaahpUQC46sK1LVvWfUG/A8Os2Y8szeP2rviiKsLW82RuHorZombKCES3V8xzHU6GnE8VKwejq0nT2jNYTrrouykKXcGbba2btPtzLVtVLd5kpAK1Ovq0Z1JV1JVWnlTqqnj13ZKi53bZzZFtyHOtri2iENtvQHkruD61ZISVLT661EnISRvrpKclI1DBxvHZWetex1rgXBFyeVLuFxQnCJc98vLRnjpB9VP7QK0Vea3iiiigKKKKCpv9pbukRTSxk4rmb1s2g2beUbW+5yGc8kd6T5GuxVE7HadGFoB8RQcma25lNHRdLac9amSR8D/WmUbY2h8est1o9i28492a3UzZqBJzqZTk91UsrYCA6SQgCgoVX61Ob0zm/MEfMVCLtb9eeeM/zVZuf8NoxPq1F/y1ZzxqUFxf7U2PWmt+QJ+QryvbO0sj1FPPEdSEY+eKaRsBAbUQtQyPGrCLsbaGsE4OO40Szbu3M1/wBS123BO4LdyrHkMV8iWa+7RSG3Lu+4toHIb4JHkN1b+JabTFA0JH8tWjT8RoAIIH7agRWS2ot0RDSRggVi9uIynto5cJAy9dLQnmydw5RyO6VlA/EQ5u8K33PY/wBv4Gqy+2+z36ImPcmy4lCw40tJUhbSxwUhQ3pPhU1nU7RMbjTiUO0XGc/zeNCkLczggtkBP5ieiPGurbBNNuSbjNjlDkRtDFvjvp4PJZSdah3cotY/bUitmLW+gN3G63iewN3ISZzmhQ7FBONf7s1oYrkGJHbjxUIZYaSEttto0pQBwAA4Crc2acntXjxRjO0Uvz1j7fwNHPWPt/A1StMUUvz2P9v4GvTclp1WlCsnwoJqKKKAooooCiiigKKKKCke+nc/OfnVCi6XJ2FJmMwYhaZceSEqlKClBtak56GATpzV899O5+c/OqC3WCPzZ5NwjhanJL61IU4pSVJU6pQynOOBG7FSLBq5wXFMtiUyl55KVIZW4A4QRkernOa9i4QucGOJkflxkFvlU6hgZO7wqoehS/R022JhqUqS64UygpAQNaiQs79WpORuxxSK+NwprbzbbMd9KEzC6W3VNLYwXCpS0n6QKwSQOo7uFQLBi+Wt6IiVz6M2ytakJU46kZI4jj3Z8KYVPhJU2lUuOFOKCEAupypRJAA37zkEeVUdv5e23D+NHSp1TK0JRyyEq0h1StScnBSdYzvBBA3cKWstqdlQLiptDcfnTD7LDzZyEFTzxynrx6yDnroNI3OiyOUTEkMPuNpJLbbgUfh37qrID8u4QEyIt1QqWpGoxw2jQheOgU9Ib93HNfGYUxx+KooksmMhYQp5bJQhRQUgJCBlQ3534G4deK+vhEuMBcbK65N0YOlpJGrHFLmdwzvzkYqyjixhh6bcXnUoc5m0wQ2vQErWpzAKgCQQAM44HJ7KWus6baWHgt4PhbDi47ymwFJWgZ0qA3HI3g4HA16tbU20NcnLbdlJdSlxbrI1qS7pAWCOJBIzkdtK3znN1K2kQ5TaERnSxrb3uuFOn9uAT0sZz3V3EfL6cTPx+2mqeB9aR5/KqtM9alAej5oycZKE4H/1VpB+tI8/lVMwtidreiiioSKKKKAooooCiiigTcgJWtStZGTnGK8+jk/eH3UUUB6OT94fdR6OT94fdRRQRu2eO+AHglwDgFoCse+pBbUgABwgDqA4UUUB6OT94fdR6OT94fdRRQHo5P3h91Ho5P3ivdRRQHo5P3h91SMQksuBYWSR3UUUDVFFFB//2Q==;imageBorder=default;" parent="4" vertex="1">
          <mxGeometry x="530" y="130" width="86.02" height="70" as="geometry" />
        </mxCell>
        <mxCell id="69" value="" style="shape=image;verticalLabelPosition=bottom;labelBackgroundColor=default;verticalAlign=top;aspect=fixed;imageAspect=0;image=data:image/jpeg,/9j/4AAQSkZJRgABAQAAAQABAAD/2wCEAAkGBwgHBgkIBwgKCgkLDRYPDQwMDRsUFRAWIB0iIiAdHx8kKDQsJCYxJx8fLT0tMTU3Ojo6Iys/RD84QzQ5OjcBCgoKDQwNGg8PGjclHyU3Nzc3Nzc3Nzc3Nzc3Nzc3Nzc3Nzc3Nzc3Nzc3Nzc3Nzc3Nzc3Nzc3Nzc3Nzc3Nzc3N//AABEIAHYAkQMBIgACEQEDEQH/xAAbAAACAwEBAQAAAAAAAAAAAAAABAMFBgcCAf/EAEQQAAEDAwEDCAYIAwYHAAAAAAECAwQABRESBiExExQyQVFhcYEVIkKRobEzNFJTYnJzgiOS0bLBwtLh8AcXQ0VUdKL/xAAZAQEAAwEBAAAAAAAAAAAAAAAAAQMEAgX/xAAhEQEAAgICAgIDAAAAAAAAAAAAAQIDEQQhEjEiYRNx8P/aAAwDAQACEQMRAD8A7jUbj7bfSVv7BxrxLcLbXqnBJxVbnO89dA6ucPYR7zURmOnhpHlSpUBUS3scKBtUt37fwFRLmuD2/gKRcepdx6gsFXJ9PBzHkK+empCDv5NXiKp3HqWcfqRpW9omx9Mwod6DmrOJcIsz6B1JV9k7j7qwC3s1Gl1aFpcbUUrSchQO8GoHTaKr7DLcm21t576TJST24PGrCgKKKKAooooCiiigKKKKCvvRKY7agcEOD5GkgorRngabvn1VH6g+RpJnoGgicC+rB8DSzgeG/k148KYe66TW84jOhxSfA1IgdcWnilQ8RSrjx76cVc5rfQkK8wDUYv1y1aecDH5E/wBKBEqcX0ULPgk0CJKX/wBBzzTirIXOa705CvIAVKhxa961qPiaCrRbZKjvSB55p1qzlA1PK3dg41Zs1LI6AqBYWNITASlIAAUcAVYUhZfqI/MafoCiiigKKKKAooooCiiigpNrpTkO2IkNx1PpQ6C4hHS04OSntI7KrrRdYNzjlcGQhzA3ozhSfFPEVd3z6qj9QfI1lZ+y1tuCucJSuNKByHWDpOaC2epB7rqrVb9o4Pqxrq3LbHBMpGT79x+NRmXfU7n7ZHdPay/p+CqBp6lfbqNUq4L42aUD+FxtX+KvI9I51Cy3D+VP9akWLXCnmeqqQSbincLLJz+N1tH99e0yb8rczborXYXX9fwTQWt2vUayx21vpdefeXyceMwnU6+v7KU9f91U8vaG+hZS/G2ftqv/AB512JeH5ghBAPdVE7KuEeVf7vNdQqdE5G2RFNp0pZ1p5RxSRniUkDPGsr4k5O8nNaMPH/JG5lny5/CdQ6tadqrxHjrSqyRrm2nKtdmuTb6vNCtJ+fhXh7bK/tuYkM7N25fXGlXNS3kdytCCAaxkJw2XZw3Bk6Z9xcUww51tsp6ZT2EnAzWfHdVleLEzPfTi3JmI9dusm/7Ty4TkuPI2cjRmum6wt6ce86UhOkeOar4u197Usc3v+zc5R4Mvx3ohV3BZJA8xXPYUuTAlIkwnlsvoO5aDv/1HdVvdWmLrbTe4bSGn0LDdwjt9FKj0XEjqCuBHbSeNET3JHImfTqmz+1TdxmqtlyhvWu7oTrMV4gpdT1qaWNzie8b+0Vo64PFnSXNmZ+VqU7ZQ3Ot7ntsqS4ApIP2VA4xXeKy5KeFvFopfzrsUUUVw7FFFFBW3z6s3+oPkaSa6Fe9rohmWxDbb62HUuhTTqDvQoA48R3VlG9oLlZ/4V+ty3GxuEuIMg+I/34UGiepB7rqOPf7VO3R5zWs+ws6Fe41I7vGRvB6xQIvUp7dNvddK+3UhtkDFPM9VIs9Qp5vcMqwAOOd1BjNoWNLW0rR4omxJvD2Ftlr+0g1kK6BenIku/iHGkMOuXK2vRShKwTyrf8VrPuc99c/rfxJ+Mww8mNW22MuVaolm2eTMtxlLMYkFbig22C4dR0pwVHPVmkdpYdrcgtXOyhKWhIVGdCAtKFHSFBSUqJKeJGO6otpci37Pgb0ejgQe0lasiviv4GxCEublSrkVtA9aUI0qPvOK7iutW+3EzvcE9noDVzvkKE+pSWnnML08cAZIHecY8607Fytr9rvDNvtzEdsWxZdPJELC9aQlOoqOrec5wKxsOS5DmMSmDh1hxLiPEHNbBUJCnr3IhIKoVzti5McDqXyiMo8QvIx3imWO9z/dmP10S2UhGRbyyRvuVwjxE7uKGyXnfLSjHnXbKwuxVp5K4oSRlmzsGPqz6q5TuFvEdukBCAe9QrdVgy387zLdjr40iBRRRVbsUUUUFbfPqyB+MfI0i0MtkHgRvFR7VXNqAGTIylkqwpWOj3nur3GWlxkLbUlaFDIUk5BHjQVU+x2yVnloTJPaEgVUq2bt7RPIc4Z/SeUmtO910g910FGq1No/7hdMf+wk/NNeRAj5wbhdc/nb/wAtWD1K+3UjwLU0vjOuih2GSE/JNSp2atrpBfQ69+s6pfzplrhTzPVQVlzsLDNrU9Z4jaZ8NaJUbTuKnGyFBOfxYKfBRrC7RsMtzxMhb4E9HOoysY9VW8p7ik5GO6uuM1nblZJFvcek26Zbm4C3TIXHucXlm4zp6TjRCk6cneUndnf11Ziy/jttVlx+cM4htpmxwLVeINxnTHneUix7ezqfiNq4qWTuCVHfpOOs9W6Ta+3xFRQbXO5dmzNtRXmSjBQVE+tqBwolQOccCKuLFEvk6DJbalR7rDefW6lcp12K8So79Sm8hSewYGBgeCN8RLt9pv1mfjwIzEdqFIaahpUQC46sK1LVvWfUG/A8Os2Y8szeP2rviiKsLW82RuHorZombKCES3V8xzHU6GnE8VKwejq0nT2jNYTrrouykKXcGbba2btPtzLVtVLd5kpAK1Ovq0Z1JV1JVWnlTqqnj13ZKi53bZzZFtyHOtri2iENtvQHkruD61ZISVLT661EnISRvrpKclI1DBxvHZWetex1rgXBFyeVLuFxQnCJc98vLRnjpB9VP7QK0Vea3iiiigKKKKCpv9pbukRTSxk4rmb1s2g2beUbW+5yGc8kd6T5GuxVE7HadGFoB8RQcma25lNHRdLac9amSR8D/WmUbY2h8est1o9i28492a3UzZqBJzqZTk91UsrYCA6SQgCgoVX61Ob0zm/MEfMVCLtb9eeeM/zVZuf8NoxPq1F/y1ZzxqUFxf7U2PWmt+QJ+QryvbO0sj1FPPEdSEY+eKaRsBAbUQtQyPGrCLsbaGsE4OO40Szbu3M1/wBS123BO4LdyrHkMV8iWa+7RSG3Lu+4toHIb4JHkN1b+JabTFA0JH8tWjT8RoAIIH7agRWS2ot0RDSRggVi9uIynto5cJAy9dLQnmydw5RyO6VlA/EQ5u8K33PY/wBv4Gqy+2+z36ImPcmy4lCw40tJUhbSxwUhQ3pPhU1nU7RMbjTiUO0XGc/zeNCkLczggtkBP5ieiPGurbBNNuSbjNjlDkRtDFvjvp4PJZSdah3cotY/bUitmLW+gN3G63iewN3ISZzmhQ7FBONf7s1oYrkGJHbjxUIZYaSEttto0pQBwAA4Crc2acntXjxRjO0Uvz1j7fwNHPWPt/A1StMUUvz2P9v4GvTclp1WlCsnwoJqKKKAooooCiiigKKKKCke+nc/OfnVCi6XJ2FJmMwYhaZceSEqlKClBtak56GATpzV899O5+c/OqC3WCPzZ5NwjhanJL61IU4pSVJU6pQynOOBG7FSLBq5wXFMtiUyl55KVIZW4A4QRkernOa9i4QucGOJkflxkFvlU6hgZO7wqoehS/R022JhqUqS64UygpAQNaiQs79WpORuxxSK+NwprbzbbMd9KEzC6W3VNLYwXCpS0n6QKwSQOo7uFQLBi+Wt6IiVz6M2ytakJU46kZI4jj3Z8KYVPhJU2lUuOFOKCEAupypRJAA37zkEeVUdv5e23D+NHSp1TK0JRyyEq0h1StScnBSdYzvBBA3cKWstqdlQLiptDcfnTD7LDzZyEFTzxynrx6yDnroNI3OiyOUTEkMPuNpJLbbgUfh37qrID8u4QEyIt1QqWpGoxw2jQheOgU9Ib93HNfGYUxx+KooksmMhYQp5bJQhRQUgJCBlQ3534G4deK+vhEuMBcbK65N0YOlpJGrHFLmdwzvzkYqyjixhh6bcXnUoc5m0wQ2vQErWpzAKgCQQAM44HJ7KWus6baWHgt4PhbDi47ymwFJWgZ0qA3HI3g4HA16tbU20NcnLbdlJdSlxbrI1qS7pAWCOJBIzkdtK3znN1K2kQ5TaERnSxrb3uuFOn9uAT0sZz3V3EfL6cTPx+2mqeB9aR5/KqtM9alAej5oycZKE4H/1VpB+tI8/lVMwtidreiiioSKKKKAooooCiiigTcgJWtStZGTnGK8+jk/eH3UUUB6OT94fdR6OT94fdRRQRu2eO+AHglwDgFoCse+pBbUgABwgDqA4UUUB6OT94fdR6OT94fdRRQHo5P3h91Ho5P3ivdRRQHo5P3h91SMQksuBYWSR3UUUDVFFFB//2Q==;imageBorder=default;" parent="4" vertex="1">
          <mxGeometry x="506.99" y="285" width="86.02" height="70" as="geometry" />
        </mxCell>
        <mxCell id="71" value="Keycloak database" style="text;html=1;align=center;verticalAlign=middle;resizable=0;points=[];autosize=1;strokeColor=none;fillColor=#050505;fontColor=#f8f6f6;" parent="4" vertex="1">
          <mxGeometry x="513.01" y="190" width="120" height="30" as="geometry" />
        </mxCell>
        <mxCell id="81" style="edgeStyle=none;html=1;strokeColor=#0a0a0a;fontColor=#f8f6f6;" parent="4" source="72" target="78" edge="1">
          <mxGeometry relative="1" as="geometry" />
        </mxCell>
        <mxCell id="82" style="edgeStyle=none;html=1;strokeColor=#0a0a0a;fontColor=#f8f6f6;" parent="4" source="72" target="79" edge="1">
          <mxGeometry relative="1" as="geometry" />
        </mxCell>
        <mxCell id="72" value="Api Gateway" style="text;html=1;align=center;verticalAlign=middle;resizable=0;points=[];autosize=1;strokeColor=none;fillColor=#050505;fontColor=#f8f6f6;" parent="4" vertex="1">
          <mxGeometry x="305.03" y="325" width="90" height="30" as="geometry" />
        </mxCell>
        <mxCell id="76" value="Kong database" style="text;html=1;align=center;verticalAlign=middle;resizable=0;points=[];autosize=1;strokeColor=none;fillColor=#050505;fontColor=#f8f6f6;" parent="4" vertex="1">
          <mxGeometry x="500" y="337.5" width="100" height="30" as="geometry" />
        </mxCell>
        <mxCell id="78" value="" style="shape=image;verticalLabelPosition=bottom;labelBackgroundColor=default;verticalAlign=top;aspect=fixed;imageAspect=0;image=data:image/png,iVBORw0KGgoAAAANSUhEUgAAAOEAAADhCAMAAAAJbSJIAAAAhFBMVEX///8BAQEAAAD8/PwFBQX5+fnt7e1paWny8vIQEBBiYmL29vb09PRzc3Pm5ubr6+vDw8N7e3tWVlZQUFDa2tqTk5OBgYGurq6mpqaJiYmZmZm8vLzKysrT09MzMzPNzc0fHx8pKSkXFxc9PT2zs7OgoKAvLy8/Pz9JSUmOjo5cXFxlZWUsHxhPAAAWc0lEQVR4nO1dCXfqKhCOQFyqpkajdW/Uarf///8uMDOEEBKtmtZ7Tua8vttqFj4YZmMYgqChhhpqqKGGGmqooYYaaqihhhpqqKGGGmqooYYaupY453/dhLtQKH+iY2eRBC4eCTCZdebP8MevN+x+lCzfmaIX53MJcKm/+FhGf9Kw+9BmutMohPwp4EjwC8a2Gcj/ZTBVO/lmcVLNb0liLcGObus/4Tv5rQI5Tfj/NTdfZ2r0hJDQEMbWvWRrEAo9lNvF5i9a+lPSozcaauZjanQEoBAFNk0IYIaRsQzkYw6malV31QHezNqPKOb5i6dMWBANu+5n6/4Ds+tg9USChRquBhJ+n+TH5cQQlN0Neiz3w1H4VwjKSfX5qMOc4RMtZFeN5dm+AZkUuFMIcweDW4Yj/mCMyoOVcMaDhGS0YAU2VcqwpWCxafK5Nb1g38hGf4fGQzyI1EjQdKJGHrQOeMUPJvYdW4VQ8nMSKKtgixgNTlYUTX9NsWoTziVgzgPocR70e0qiyk/acKnivghRp3g7ghQ2xOmfACmlr0y7qaZO5tYIdHDKWZbbHCfnZ/ZRdPzQIymIU4e/1/pLaJEJfDZ+UaPFQy3y5c9Ka0XBxkE46La73UEYfGiJxBjpP5Arz/OJEUwPN4YjatfXy7P7XZsUxmG3lyMs9juwZwTrFQTm88sYZ6Seog9EfdIJSpW5zR5nwocIumPmMV4ifNLudxp+KYUw2WSj5x49NicBkhnb8P9N4eIwOOKAL36n5ZfTChv2VRwW3nY1JcJMfUr9YNA/GHHixG7xq+DJh7ClmLRAxKSn+pv8I+KkExh783y5zqw3wKYuFOzV86QjPmb2YFZboHWCHsWxr2kd5qEn35WaSaV5VJyif059gb3f9nwZxoKlh8l3PJstZnFnsk3ZfuHzkSJ8yP4RXcQOzqAim6rWhs787IJD4tIRfGavHvktkrZKeNyxTiJ/sz+WbAoIxzc8Wxo7oHRebfzKOkqe2G4a9H8Dtnzbl55GruYbkJYbXP1oMn8Y4zZC+RuEHn3C9/7EJSfJTpbmVycHJRqTcXaDZ2eMv0nOd2p/aL+DuaGQmiihKBPba4HHtcSYZ/bK8tonc2PQAIvoaRCGEjcGD5g0VuuPcIQ7bIUKqiwR4PPEhNVuGkOrn9jkGaZBOCPHUb4xrR0gD4b4OqaCochNI0HBFtmyWxrxrD1EnIu9tfooOpjwgfq3fq/xzdgmwDZsBWKgxXCqpDd5PdHWBKaYZpE32xxSv715tcz9KHKMaCXgOiZ6KOl4myLTcixzReI4i/+gDGJRrZqSf+BChPHx1GwUZkQ7kV+RX/4CHkQdA1Ezv0ZoBlKw9/qMAfn2BcJihwVwE/EQhGdW/rs09aP123y6mC0W0/nbKBnoEIe/N1Y9musMosoK6nTLEOqn7577IFQ+gpprmlVGhSDnl88iVdQdTb93rt29Hy9WhYCHfk0YtL8Am/XwkdZS8LvPJ7kPtXvAkGqtTP41sSNjMAOLQxJuFghO6DYLkPq4FJPqZQoHoXqKtiogaKymxERZtUca2f2gFj7lOmQIbu4TfDS1FJVYu5erRrzGqZlBzkIMTa5evObK2HXete7pOQ5qdwEfTrTUkT+dWvQ+l+oYxfi+C5MoeBUUUzq5EWp5xeCowrzZooSP9GCelh5TNjqhFFUcCqbTs171UbPfXTS/D8CE0VR/5fCJ9InQtf0KCwIumgFrugOH/8/EJagct4dCJbe1gh134dFcuy8gXOsINfL+DgSbE6odqbXsRX6lSP7+HLuCSKCO0dZBSziCRKq+opxSK627nLsZgyXVYtsalhiHaPuyjxyUgK/mhQ7lS2a0ZIbBpTx8acE4bebBZr4Oc25UeAKuEHeP4ygG0YtFSlHkHLdC6FD+jFJcRmRGWbNTvFxtkqg9GLSjZLNaDnc4nKAWwOArSKvCwxMSNndffYvIhJFavarzZIf3MytOwAL9x/TVI/v6r9MPmFeZzRef1QNz6rXe1Y62v+EfMI9aLK60yuR3oz0zGRjaCdILGYWb4O92thYD/bc7Gwgekw3lM6Cup0/Fo0pP78IqhFynyQhwrTS+RURflFGyQK8Eh/GMIuDtHtpV9/P3ubbWWtpxq5bSkkO/jIUsL97PzytmiT2ct4wHcVYRSCWsr71v2H/ASIIVMpvyFJ2M7yhvmReVpIeU2A+PgswlpYwqp4GyPBR9/xhG+UODJ+g1IZ9aqYWSPekI2eDZxZJA5+GA/lRipxKh/k5BnIV31BYJOkgs7VcgDE2akzKtzksMl15TPdfFWTXAlSc2uKuT+GIaPquaVxvkZdUfi582QGlWbeYpq/7MrZxjGO5uNFIcCvNwmwRlDUhMMsY12lg/cySd3MpOdK6/G4VpFkiTwtzLqLy7N9Gigp9xOT13/2K5ghvvWs+w74LLqi86MHITxheJUB/14XV/QYMxhjG1NbF2msF1FBUMGeWd3kR/tOIEaxUCvV02zTMqqCgc484jLvydpzAMNimxqkQ6dsRBQt4/+woeLanwcuoPjTYQKuMiIx7sILLYYh/nJGEf8m1KOwG+GHQNtSXJfwb9MH9J7iZY3/B+dzlxHWA38ibn5UzJ5ErblW3fDKVWP0271RD5vBB51PGQfbqdxMdRVASiLOcv0douw1sgqn6K3tFzETnzOGHk/ieVEe8FNXZUAZD7sxos2sbrwm1H+GpyoynHIU6ixzAkJPKfCTnH1Y5PDD69sgjWFX09t+MbLPePUcrbVX4cE2KiWxOpOCBsKT84+2xF8/Op0i5fm+zRqgU4HpwyfGWkbLscQ35SlGB34xiq9C0IQ9tMusMO7LUrHY8PZnn+paPNQ2+GWBHj1jacaC3Hn+ryE3rDQPtH7rPSZCir4cFzLgO4sL/E0GUI1XD1s1HsGO64DSGHGdfKW9YnRDiplmOf9lKLLyvxhwiFeiExzb0QQi6IbGlqmaaUk8iKG/As4nxnN7xisZoQmvBxkQChneh5N4SKIVXMLaZHcxrWs+boKB8AZqxbPYbykl4qaSfpJGm7S/c6Mtkya/pWGuTdEHYYrAVZ63dGTifVBkXHYb7SSFloW7jOV8/Jy5c1nbPlhbshxEClCDJlOEPZ81R9Z5tRFJzaUiZrbISUCo//138mZs9bi+1J6VyN0JH+G8yvjK0reowkR+Vj5uSWbE1bShZyzTws4/vBwcgsI/GuH8PBdGwR5SdbweY19vh75WN4YNbgR1tSLiUAziK09vWZvr4aYbvnGL+w8cpafY8xUl0Zf+YqSAUNEHx+RjmfQ8jxpfoSyue/GuG3Ix3g/6l1BaVhVD5Yz1aQuLHS/Pj70mvknR9D01+ZNL0SIQ9Tn/K1p2GiAxetvLvoeZJp9atKBmiBOtt7he8FCIMsRQqV8LVj2BUFhCxvnS1RgLxUq4oVNUAZxiNcp2v5nahLEE5MsOH1RoQ9fFIGUK3VWibvGAXImfDhhFqtFBhPMfLvH/lLEGYTcXQfhHlxY5aXObZG5GamhyKytKAnFqY5vo45j5DnEAZ3QMjELk33mtLDcGWlCCToTJ3JiKRNzexAd2FzfOlbl4zh2FWqtyKM/V9z5UzpC84saoLAEi0yld8JROqJ1/xA0gizv+1WhKVDNGUk0aqIRItRpC9G2q+KEuoChEnmSaOTUxNCDoK/5ezSLlCHkuHGqAC7RiV6fMoLEM6MtqDNUbWNIZpx1cGRvmmPsfa+zUpPUdacQcg5zX7VZxR4qgthuCejtAqiMdMELgrzLCjliY2dHcP2jpmESLLe60JI2z+qPacDNZkeI8XLzrSoEHQzUYwShKM0S/nc3urjn5uHtFWwRNYCJeblVhz30wxiIXyVISy+lkcvE/Qz9UKssffrGkNUbBWbrrkSC6gMU4uVI3TxcklyQBnC0yyWNAOKh50v2LJP1VLU/K95DA3CZek85LxPlp+cctZVpLOLO7YNQuGLQVm5qnbkvC6E5MUcS59AG9rclQ6zyCOyqJaL0CVcE8A/5J8W69SNsGqfkzGwdrksSp65eIMLEbp47dlfN8KK4gdmA4ocaEtshpCtqsu7OCbfBQh1oOHT7rG652FFMuuUvArX7tkU7JJLEeoc1zSfz1IXwui8PtwTwt3bS55Eiaw5gxBC4dN+vlPrQoghFynxy8ZwbVpblIsk9p3HZwj1Reb37BmTl75rsNeFsI9WW1kFC45GN3Z+yaA4NQoqtcX2azHypfPUbXmX+hZte0WtnPFyG4ozjT9+XY9Gq9WbptVokzz3IfJd5Jh7I8Q3hMZ7Kgt4v+R21pUi3NpNrrLanAbcD6Fjd2aLFlR2p8zHP7BLlBujiFkOYZWPX6DbEDLW26l1LhWm2b3HIwshRTFKTG/SCOdQ5oJuv4pwcC7WlmD+eeq/f2Y81TKidlkT+U8QOjxFzeFBSCtP/nipCSKKJx99UwcK27L9bYSeeWTPuiccJe9EXBkXqaQUwtLohV724a8i1JmzLsRclbEj+qKeTBoVp6JoTImsjTI+HWUS+jcRKoXtQbjPtbHkwdwsMlWklkyMh5HJmt9F+OysH+K+FmvW4eqUb/2QeLDCQ14ZNNkzfxdh0P+cWLTFWWfFVijd6lC4lZvNJaXrNiYAYAf4fxlhnjaI0JqI5EAVp9ratHTifpVRbMbZZLr9MkJHfmjJIGem9RGZpgUPamjm2EsZk3LqM3UdhYv/dAxNiUcTFySzhjlrF1xF7kndl+4O4kGWiGiCbn+LkJL0LLNGe1BK5Oa2RHFldGNLK+PFR2qaiVT9LUIKcqdWzvWUqizkZ+LB1H2o3AhpVIrptr9FiAos1+oBpGM4uYmJMchE5ZZTdMD0Q+FCymr40caN+yF8gw3rOfE4xYTFXIB+adIR3HioQyajj5jgxjGsXug7R1SKKy9X+ugkMGH1X2xibNW79FRGC12p5RfPMlN+UE1oeKcxDLnJZLfzvI+QK9WyqwQeaVW0usCjrgeDtUCosk5KWuYHRVrulecdkssnVD21rJEoVezgbpvKvJRH/JEiKGKiUxH1B0uGVb0vLwzBjeFxa+ma6B32xugUAVIYodTbVKgEG8U5lXeqsGeIYFcvew912oJ0OsfwwQ9qovF77LfgHItStUD95fhdJZlqrtxle2aSTo+li0teuPpgbHvMYv78uBViUrHrpNg4aSSOhdheXSgOKByyTD07+56w0IpgE1vtD4JLNiJJaH03BqqG4qeVPW7eN7uhkmyaG7pWA7gp7CIy6FD38IJW8qAQBNX7fH9au+Tnd9g3h5wUHMSVivM5S5EZ/o/7D8Oga3LvVFxp7Rmb2FJj/x9COhaAaSH+NPBsrlO7ErRr5dl++R9Qf68DGHBWSukughNqxZbaknQVSP5Xe7nJdlRq8FSuhtuYJCOv6hU3CJ4nVQZqy0Ts3SpeM82NoxCHFaMT9QyjXmVbYE2FMxnVtZCxiXrVu1DbaVY1SQ72xdJbK4fgdQfRvPN1MaTfHVVV6LiCYsqf9FbgzqhLi00K4+JydpONVbVNcD/4+VMfluK+tU04HzCGsQrfuQDZhUF/jLUDldTdX142jh8F7vdnVQlISFA1+cbKBg6NGB6kctbgn5mhkJTOtS1d1WI1EuF8rxkU7YnKbX5BXy/aqafftz5kTPHu9NyVb1adPdmMz7NVQKhOFN1xZmdDMNhh/vyNdrZD/S1ZZZWJiMr8Td7RBRGQbTB5qfC72y8fFIQFgOnZevodiuNU7cr9MUElOHAfnHptSgzm28Q/WZbjqvnpY7r212vLjpVBP39YLZ54ZgGz3l0VpxyaOcP6ZO4yRLZHEP/mweY9t/CoBUM6nL69JpEqAhElm7fl8GStAgN76Jp7vOLRgbXadeeae1yXmm+Bh++khIZvy417bfCyt3ivJfwL3eppwuqFKXfF0ut87fDHgTbQLe5fErqbkn84NQ+XvLdK4XUOG/ZVrQwqcElZk84KfhYNVh3QyfOGwqpqX55WgeVnzmCRT7BDHebrBkJEws4O6X9D4cOv4jwbTPNsWEEKn6uGOO9/gIp6ynKmRoZH66hfGkpNK2Av957e+crwoEq21QLTziCVPy8gVitxanZV9VlDh+uiHYNy19mUo8p4Z0sPXk1jCm93IEqxxObrsxI2AS9OjQ3UERZ2+rIhnJyTt6JU5MGaSoepS1QyaQiiQN93x3p7eaKVGajK2B1n9dKVpPepah6E63jPfPwKH36pA9oKHrXiFyslTnrVbR0yhBldVy1o1ZARhROhnndLe4MtAYUx1XkXHoiSorf4oyhK99/LMsOrPTZmKlaLkZy6QSGj7bWaEOoYPFhv758EttWiks2sNwJD03tzNHqZxp2v8Xj81Jkt316L50LRS2CdEo19NMd1TXbklvpqsit6ZxTgxuJmLZHxqhzGEgvNB9tf2U6O+BfpGZBTMDEEvbEiYfdmUrpc2RQgUVGuMhZ3LCutNI7Ds39xobDkoikwI+j1YWzmhcC4et1nI6gykbiNFwXMCpYQDcbe9apKxZZ3ZKiq3juCrwJjh8N6V4Pb1wi1VmeEnDSqI6Ups1MEJObebWeUoHupROarMpqig2291h6OVTGSE5TC1FJtESDzfhDG20oYz6nIpnz4mNY94sy8U5WF6ifa4WhX8dTrW9SMG84KmpvFrWxCQ60tPEzjN45j02f5agH+1c7yhcMgojy86/0aOGRP88E4J0+iD1xen//Gqog5s2vp2KF9WuS//swuPqBiYnZujvoPok8xflA7hcsd+y6ITDL8fSFdjqEAaB3HD4oPVjvBdD8V6s+rc9f8tULqIGLN/OuGyKT+s/Nc8g00xzM0ysJBd64eXE3FJvd74NazYmE66et9bk/vT/H0OJ8fj9PZ97s6/9D33Gdi08L7Ss2EX6MR8lfxcEDO9UkVBfJmvL2DTeqy6SNQjEb5m6ejE8tQocM7mPCiOCInPOBCK8POL5Yw1YlGOg/H8RB9k42CaelfrLJV0hrjVL4TLEv2FPrOA+aSTW/UqnURloLy+hZY+wPdLVCarSxZz6bsCMQHO1rdpKNhtRGfHhFW0BTPUvPtr6VQyf7B0gHMLq6vN310vN1ynZKvbOnDTm9vUGerg9zt5awiddPzfFyaHP+39JlFpNh4nvf0sdAHmwThQFV2HoSmTGgexbM+k4XCx/ddW7qZvow+gAjh3KSyctQjuTLDlBqwyBR5NIdolSlt+WATMauKg5KEHY5Ql5pDcS+Wy9+lTdIpMmeyPDgBx7oDTj8mOmCWYOrhOCyVeU6FCXKZmOi466KgAC93Ppu6+/oTFuogOBLN2QimQX4mn2hpzu3Llxifl19vKWBMyzU6vpU+nD4MwtUwm0YIESYlhpAsJuVouohiNBw+GbrnL/w5gekvQfbcFptjRJ0wJ8Z3W0LYAw8W+arv5GM+EvVHsEzRymrJCAi8OEkkS+JJGHWKw7Dh6r6njdVBfB0XeK+VO5BOUZKXnDB6s9GDDpxNwF14+GjLLPSyrRsS2Fq9oH7dzeo7QLUW4pvFiZEScI+FVDTVp1EKGL3t54PZaOdJj9dmmtJAFrVbQnqB7XSqw3/An3nCYBoaKz6nCjZavC819v8On03RvLPwrtZsFp3jbTuxHokeVbvdgXDvRBnCB3NzG2qooYYaaqihhhpqqKGGGmqooYYaaqihhhr63+kfRifvD4t2cg0AAAAASUVORK5CYII=;imageBorder=default;" parent="4" vertex="1">
          <mxGeometry x="295.03" y="430" width="80" height="80" as="geometry" />
        </mxCell>
        <mxCell id="83" style="edgeStyle=none;html=1;entryX=1;entryY=0.5;entryDx=0;entryDy=0;strokeColor=#0a0a0a;fontColor=#f8f6f6;" parent="4" source="79" target="26" edge="1">
          <mxGeometry relative="1" as="geometry" />
        </mxCell>
        <mxCell id="79" value="" style="shape=image;verticalLabelPosition=bottom;labelBackgroundColor=default;verticalAlign=top;aspect=fixed;imageAspect=0;image=data:image/png,iVBORw0KGgoAAAANSUhEUgAAAOEAAADhCAMAAAAJbSJIAAAAhFBMVEX///8BAQEAAAD8/PwFBQX5+fnt7e1paWny8vIQEBBiYmL29vb09PRzc3Pm5ubr6+vDw8N7e3tWVlZQUFDa2tqTk5OBgYGurq6mpqaJiYmZmZm8vLzKysrT09MzMzPNzc0fHx8pKSkXFxc9PT2zs7OgoKAvLy8/Pz9JSUmOjo5cXFxlZWUsHxhPAAAWc0lEQVR4nO1dCXfqKhCOQFyqpkajdW/Uarf///8uMDOEEBKtmtZ7Tua8vttqFj4YZmMYgqChhhpqqKGGGmqooYYaaqihhhpqqKGGGmqooYYaupY453/dhLtQKH+iY2eRBC4eCTCZdebP8MevN+x+lCzfmaIX53MJcKm/+FhGf9Kw+9BmutMohPwp4EjwC8a2Gcj/ZTBVO/lmcVLNb0liLcGObus/4Tv5rQI5Tfj/NTdfZ2r0hJDQEMbWvWRrEAo9lNvF5i9a+lPSozcaauZjanQEoBAFNk0IYIaRsQzkYw6malV31QHezNqPKOb5i6dMWBANu+5n6/4Ds+tg9USChRquBhJ+n+TH5cQQlN0Neiz3w1H4VwjKSfX5qMOc4RMtZFeN5dm+AZkUuFMIcweDW4Yj/mCMyoOVcMaDhGS0YAU2VcqwpWCxafK5Nb1g38hGf4fGQzyI1EjQdKJGHrQOeMUPJvYdW4VQ8nMSKKtgixgNTlYUTX9NsWoTziVgzgPocR70e0qiyk/acKnivghRp3g7ghQ2xOmfACmlr0y7qaZO5tYIdHDKWZbbHCfnZ/ZRdPzQIymIU4e/1/pLaJEJfDZ+UaPFQy3y5c9Ka0XBxkE46La73UEYfGiJxBjpP5Arz/OJEUwPN4YjatfXy7P7XZsUxmG3lyMs9juwZwTrFQTm88sYZ6Seog9EfdIJSpW5zR5nwocIumPmMV4ifNLudxp+KYUw2WSj5x49NicBkhnb8P9N4eIwOOKAL36n5ZfTChv2VRwW3nY1JcJMfUr9YNA/GHHixG7xq+DJh7ClmLRAxKSn+pv8I+KkExh783y5zqw3wKYuFOzV86QjPmb2YFZboHWCHsWxr2kd5qEn35WaSaV5VJyif059gb3f9nwZxoKlh8l3PJstZnFnsk3ZfuHzkSJ8yP4RXcQOzqAim6rWhs787IJD4tIRfGavHvktkrZKeNyxTiJ/sz+WbAoIxzc8Wxo7oHRebfzKOkqe2G4a9H8Dtnzbl55GruYbkJYbXP1oMn8Y4zZC+RuEHn3C9/7EJSfJTpbmVycHJRqTcXaDZ2eMv0nOd2p/aL+DuaGQmiihKBPba4HHtcSYZ/bK8tonc2PQAIvoaRCGEjcGD5g0VuuPcIQ7bIUKqiwR4PPEhNVuGkOrn9jkGaZBOCPHUb4xrR0gD4b4OqaCochNI0HBFtmyWxrxrD1EnIu9tfooOpjwgfq3fq/xzdgmwDZsBWKgxXCqpDd5PdHWBKaYZpE32xxSv715tcz9KHKMaCXgOiZ6KOl4myLTcixzReI4i/+gDGJRrZqSf+BChPHx1GwUZkQ7kV+RX/4CHkQdA1Ezv0ZoBlKw9/qMAfn2BcJihwVwE/EQhGdW/rs09aP123y6mC0W0/nbKBnoEIe/N1Y9musMosoK6nTLEOqn7577IFQ+gpprmlVGhSDnl88iVdQdTb93rt29Hy9WhYCHfk0YtL8Am/XwkdZS8LvPJ7kPtXvAkGqtTP41sSNjMAOLQxJuFghO6DYLkPq4FJPqZQoHoXqKtiogaKymxERZtUca2f2gFj7lOmQIbu4TfDS1FJVYu5erRrzGqZlBzkIMTa5evObK2HXete7pOQ5qdwEfTrTUkT+dWvQ+l+oYxfi+C5MoeBUUUzq5EWp5xeCowrzZooSP9GCelh5TNjqhFFUcCqbTs171UbPfXTS/D8CE0VR/5fCJ9InQtf0KCwIumgFrugOH/8/EJagct4dCJbe1gh134dFcuy8gXOsINfL+DgSbE6odqbXsRX6lSP7+HLuCSKCO0dZBSziCRKq+opxSK627nLsZgyXVYtsalhiHaPuyjxyUgK/mhQ7lS2a0ZIbBpTx8acE4bebBZr4Oc25UeAKuEHeP4ygG0YtFSlHkHLdC6FD+jFJcRmRGWbNTvFxtkqg9GLSjZLNaDnc4nKAWwOArSKvCwxMSNndffYvIhJFavarzZIf3MytOwAL9x/TVI/v6r9MPmFeZzRef1QNz6rXe1Y62v+EfMI9aLK60yuR3oz0zGRjaCdILGYWb4O92thYD/bc7Gwgekw3lM6Cup0/Fo0pP78IqhFynyQhwrTS+RURflFGyQK8Eh/GMIuDtHtpV9/P3ubbWWtpxq5bSkkO/jIUsL97PzytmiT2ct4wHcVYRSCWsr71v2H/ASIIVMpvyFJ2M7yhvmReVpIeU2A+PgswlpYwqp4GyPBR9/xhG+UODJ+g1IZ9aqYWSPekI2eDZxZJA5+GA/lRipxKh/k5BnIV31BYJOkgs7VcgDE2akzKtzksMl15TPdfFWTXAlSc2uKuT+GIaPquaVxvkZdUfi582QGlWbeYpq/7MrZxjGO5uNFIcCvNwmwRlDUhMMsY12lg/cySd3MpOdK6/G4VpFkiTwtzLqLy7N9Gigp9xOT13/2K5ghvvWs+w74LLqi86MHITxheJUB/14XV/QYMxhjG1NbF2msF1FBUMGeWd3kR/tOIEaxUCvV02zTMqqCgc484jLvydpzAMNimxqkQ6dsRBQt4/+woeLanwcuoPjTYQKuMiIx7sILLYYh/nJGEf8m1KOwG+GHQNtSXJfwb9MH9J7iZY3/B+dzlxHWA38ibn5UzJ5ErblW3fDKVWP0271RD5vBB51PGQfbqdxMdRVASiLOcv0douw1sgqn6K3tFzETnzOGHk/ieVEe8FNXZUAZD7sxos2sbrwm1H+GpyoynHIU6ixzAkJPKfCTnH1Y5PDD69sgjWFX09t+MbLPePUcrbVX4cE2KiWxOpOCBsKT84+2xF8/Op0i5fm+zRqgU4HpwyfGWkbLscQ35SlGB34xiq9C0IQ9tMusMO7LUrHY8PZnn+paPNQ2+GWBHj1jacaC3Hn+ryE3rDQPtH7rPSZCir4cFzLgO4sL/E0GUI1XD1s1HsGO64DSGHGdfKW9YnRDiplmOf9lKLLyvxhwiFeiExzb0QQi6IbGlqmaaUk8iKG/As4nxnN7xisZoQmvBxkQChneh5N4SKIVXMLaZHcxrWs+boKB8AZqxbPYbykl4qaSfpJGm7S/c6Mtkya/pWGuTdEHYYrAVZ63dGTifVBkXHYb7SSFloW7jOV8/Jy5c1nbPlhbshxEClCDJlOEPZ81R9Z5tRFJzaUiZrbISUCo//138mZs9bi+1J6VyN0JH+G8yvjK0reowkR+Vj5uSWbE1bShZyzTws4/vBwcgsI/GuH8PBdGwR5SdbweY19vh75WN4YNbgR1tSLiUAziK09vWZvr4aYbvnGL+w8cpafY8xUl0Zf+YqSAUNEHx+RjmfQ8jxpfoSyue/GuG3Ix3g/6l1BaVhVD5Yz1aQuLHS/Pj70mvknR9D01+ZNL0SIQ9Tn/K1p2GiAxetvLvoeZJp9atKBmiBOtt7he8FCIMsRQqV8LVj2BUFhCxvnS1RgLxUq4oVNUAZxiNcp2v5nahLEE5MsOH1RoQ9fFIGUK3VWibvGAXImfDhhFqtFBhPMfLvH/lLEGYTcXQfhHlxY5aXObZG5GamhyKytKAnFqY5vo45j5DnEAZ3QMjELk33mtLDcGWlCCToTJ3JiKRNzexAd2FzfOlbl4zh2FWqtyKM/V9z5UzpC84saoLAEi0yld8JROqJ1/xA0gizv+1WhKVDNGUk0aqIRItRpC9G2q+KEuoChEnmSaOTUxNCDoK/5ezSLlCHkuHGqAC7RiV6fMoLEM6MtqDNUbWNIZpx1cGRvmmPsfa+zUpPUdacQcg5zX7VZxR4qgthuCejtAqiMdMELgrzLCjliY2dHcP2jpmESLLe60JI2z+qPacDNZkeI8XLzrSoEHQzUYwShKM0S/nc3urjn5uHtFWwRNYCJeblVhz30wxiIXyVISy+lkcvE/Qz9UKssffrGkNUbBWbrrkSC6gMU4uVI3TxcklyQBnC0yyWNAOKh50v2LJP1VLU/K95DA3CZek85LxPlp+cctZVpLOLO7YNQuGLQVm5qnbkvC6E5MUcS59AG9rclQ6zyCOyqJaL0CVcE8A/5J8W69SNsGqfkzGwdrksSp65eIMLEbp47dlfN8KK4gdmA4ocaEtshpCtqsu7OCbfBQh1oOHT7rG652FFMuuUvArX7tkU7JJLEeoc1zSfz1IXwui8PtwTwt3bS55Eiaw5gxBC4dN+vlPrQoghFynxy8ZwbVpblIsk9p3HZwj1Reb37BmTl75rsNeFsI9WW1kFC45GN3Z+yaA4NQoqtcX2azHypfPUbXmX+hZte0WtnPFyG4ozjT9+XY9Gq9WbptVokzz3IfJd5Jh7I8Q3hMZ7Kgt4v+R21pUi3NpNrrLanAbcD6Fjd2aLFlR2p8zHP7BLlBujiFkOYZWPX6DbEDLW26l1LhWm2b3HIwshRTFKTG/SCOdQ5oJuv4pwcC7WlmD+eeq/f2Y81TKidlkT+U8QOjxFzeFBSCtP/nipCSKKJx99UwcK27L9bYSeeWTPuiccJe9EXBkXqaQUwtLohV724a8i1JmzLsRclbEj+qKeTBoVp6JoTImsjTI+HWUS+jcRKoXtQbjPtbHkwdwsMlWklkyMh5HJmt9F+OysH+K+FmvW4eqUb/2QeLDCQ14ZNNkzfxdh0P+cWLTFWWfFVijd6lC4lZvNJaXrNiYAYAf4fxlhnjaI0JqI5EAVp9ratHTifpVRbMbZZLr9MkJHfmjJIGem9RGZpgUPamjm2EsZk3LqM3UdhYv/dAxNiUcTFySzhjlrF1xF7kndl+4O4kGWiGiCbn+LkJL0LLNGe1BK5Oa2RHFldGNLK+PFR2qaiVT9LUIKcqdWzvWUqizkZ+LB1H2o3AhpVIrptr9FiAos1+oBpGM4uYmJMchE5ZZTdMD0Q+FCymr40caN+yF8gw3rOfE4xYTFXIB+adIR3HioQyajj5jgxjGsXug7R1SKKy9X+ugkMGH1X2xibNW79FRGC12p5RfPMlN+UE1oeKcxDLnJZLfzvI+QK9WyqwQeaVW0usCjrgeDtUCosk5KWuYHRVrulecdkssnVD21rJEoVezgbpvKvJRH/JEiKGKiUxH1B0uGVb0vLwzBjeFxa+ma6B32xugUAVIYodTbVKgEG8U5lXeqsGeIYFcvew912oJ0OsfwwQ9qovF77LfgHItStUD95fhdJZlqrtxle2aSTo+li0teuPpgbHvMYv78uBViUrHrpNg4aSSOhdheXSgOKByyTD07+56w0IpgE1vtD4JLNiJJaH03BqqG4qeVPW7eN7uhkmyaG7pWA7gp7CIy6FD38IJW8qAQBNX7fH9au+Tnd9g3h5wUHMSVivM5S5EZ/o/7D8Oga3LvVFxp7Rmb2FJj/x9COhaAaSH+NPBsrlO7ErRr5dl++R9Qf68DGHBWSukughNqxZbaknQVSP5Xe7nJdlRq8FSuhtuYJCOv6hU3CJ4nVQZqy0Ts3SpeM82NoxCHFaMT9QyjXmVbYE2FMxnVtZCxiXrVu1DbaVY1SQ72xdJbK4fgdQfRvPN1MaTfHVVV6LiCYsqf9FbgzqhLi00K4+JydpONVbVNcD/4+VMfluK+tU04HzCGsQrfuQDZhUF/jLUDldTdX142jh8F7vdnVQlISFA1+cbKBg6NGB6kctbgn5mhkJTOtS1d1WI1EuF8rxkU7YnKbX5BXy/aqafftz5kTPHu9NyVb1adPdmMz7NVQKhOFN1xZmdDMNhh/vyNdrZD/S1ZZZWJiMr8Td7RBRGQbTB5qfC72y8fFIQFgOnZevodiuNU7cr9MUElOHAfnHptSgzm28Q/WZbjqvnpY7r212vLjpVBP39YLZ54ZgGz3l0VpxyaOcP6ZO4yRLZHEP/mweY9t/CoBUM6nL69JpEqAhElm7fl8GStAgN76Jp7vOLRgbXadeeae1yXmm+Bh++khIZvy417bfCyt3ivJfwL3eppwuqFKXfF0ut87fDHgTbQLe5fErqbkn84NQ+XvLdK4XUOG/ZVrQwqcElZk84KfhYNVh3QyfOGwqpqX55WgeVnzmCRT7BDHebrBkJEws4O6X9D4cOv4jwbTPNsWEEKn6uGOO9/gIp6ynKmRoZH66hfGkpNK2Av957e+crwoEq21QLTziCVPy8gVitxanZV9VlDh+uiHYNy19mUo8p4Z0sPXk1jCm93IEqxxObrsxI2AS9OjQ3UERZ2+rIhnJyTt6JU5MGaSoepS1QyaQiiQN93x3p7eaKVGajK2B1n9dKVpPepah6E63jPfPwKH36pA9oKHrXiFyslTnrVbR0yhBldVy1o1ZARhROhnndLe4MtAYUx1XkXHoiSorf4oyhK99/LMsOrPTZmKlaLkZy6QSGj7bWaEOoYPFhv758EttWiks2sNwJD03tzNHqZxp2v8Xj81Jkt316L50LRS2CdEo19NMd1TXbklvpqsit6ZxTgxuJmLZHxqhzGEgvNB9tf2U6O+BfpGZBTMDEEvbEiYfdmUrpc2RQgUVGuMhZ3LCutNI7Ds39xobDkoikwI+j1YWzmhcC4et1nI6gykbiNFwXMCpYQDcbe9apKxZZ3ZKiq3juCrwJjh8N6V4Pb1wi1VmeEnDSqI6Ups1MEJObebWeUoHupROarMpqig2291h6OVTGSE5TC1FJtESDzfhDG20oYz6nIpnz4mNY94sy8U5WF6ifa4WhX8dTrW9SMG84KmpvFrWxCQ60tPEzjN45j02f5agH+1c7yhcMgojy86/0aOGRP88E4J0+iD1xen//Gqog5s2vp2KF9WuS//swuPqBiYnZujvoPok8xflA7hcsd+y6ITDL8fSFdjqEAaB3HD4oPVjvBdD8V6s+rc9f8tULqIGLN/OuGyKT+s/Nc8g00xzM0ysJBd64eXE3FJvd74NazYmE66et9bk/vT/H0OJ8fj9PZ97s6/9D33Gdi08L7Ss2EX6MR8lfxcEDO9UkVBfJmvL2DTeqy6SNQjEb5m6ejE8tQocM7mPCiOCInPOBCK8POL5Yw1YlGOg/H8RB9k42CaelfrLJV0hrjVL4TLEv2FPrOA+aSTW/UqnURloLy+hZY+wPdLVCarSxZz6bsCMQHO1rdpKNhtRGfHhFW0BTPUvPtr6VQyf7B0gHMLq6vN310vN1ynZKvbOnDTm9vUGerg9zt5awiddPzfFyaHP+39JlFpNh4nvf0sdAHmwThQFV2HoSmTGgexbM+k4XCx/ddW7qZvow+gAjh3KSyctQjuTLDlBqwyBR5NIdolSlt+WATMauKg5KEHY5Ql5pDcS+Wy9+lTdIpMmeyPDgBx7oDTj8mOmCWYOrhOCyVeU6FCXKZmOi466KgAC93Ppu6+/oTFuogOBLN2QimQX4mn2hpzu3Llxifl19vKWBMyzU6vpU+nD4MwtUwm0YIESYlhpAsJuVouohiNBw+GbrnL/w5gekvQfbcFptjRJ0wJ8Z3W0LYAw8W+arv5GM+EvVHsEzRymrJCAi8OEkkS+JJGHWKw7Dh6r6njdVBfB0XeK+VO5BOUZKXnDB6s9GDDpxNwF14+GjLLPSyrRsS2Fq9oH7dzeo7QLUW4pvFiZEScI+FVDTVp1EKGL3t54PZaOdJj9dmmtJAFrVbQnqB7XSqw3/An3nCYBoaKz6nCjZavC819v8On03RvLPwrtZsFp3jbTuxHokeVbvdgXDvRBnCB3NzG2qooYYaaqihhhpqqKGGGmqooYYaaqihhhr63+kfRifvD4t2cg0AAAAASUVORK5CYII=;imageBorder=default;" parent="4" vertex="1">
          <mxGeometry x="420" y="430" width="80" height="80" as="geometry" />
        </mxCell>
        <mxCell id="84" style="edgeStyle=none;html=1;strokeColor=#0a0a0a;fontColor=#f8f6f6;entryX=1;entryY=0.25;entryDx=0;entryDy=0;" parent="4" source="78" target="26" edge="1">
          <mxGeometry relative="1" as="geometry">
            <mxPoint x="320" y="500" as="targetPoint" />
          </mxGeometry>
        </mxCell>
        <mxCell id="77" value="" style="shape=image;verticalLabelPosition=bottom;labelBackgroundColor=default;verticalAlign=top;aspect=fixed;imageAspect=0;image=data:image/png,iVBORw0KGgoAAAANSUhEUgAAAOEAAADhCAMAAAAJbSJIAAAAhFBMVEX///8BAQEAAAD8/PwFBQX5+fnt7e1paWny8vIQEBBiYmL29vb09PRzc3Pm5ubr6+vDw8N7e3tWVlZQUFDa2tqTk5OBgYGurq6mpqaJiYmZmZm8vLzKysrT09MzMzPNzc0fHx8pKSkXFxc9PT2zs7OgoKAvLy8/Pz9JSUmOjo5cXFxlZWUsHxhPAAAWc0lEQVR4nO1dCXfqKhCOQFyqpkajdW/Uarf///8uMDOEEBKtmtZ7Tua8vttqFj4YZmMYgqChhhpqqKGGGmqooYYaaqihhhpqqKGGGmqooYYaupY453/dhLtQKH+iY2eRBC4eCTCZdebP8MevN+x+lCzfmaIX53MJcKm/+FhGf9Kw+9BmutMohPwp4EjwC8a2Gcj/ZTBVO/lmcVLNb0liLcGObus/4Tv5rQI5Tfj/NTdfZ2r0hJDQEMbWvWRrEAo9lNvF5i9a+lPSozcaauZjanQEoBAFNk0IYIaRsQzkYw6malV31QHezNqPKOb5i6dMWBANu+5n6/4Ds+tg9USChRquBhJ+n+TH5cQQlN0Neiz3w1H4VwjKSfX5qMOc4RMtZFeN5dm+AZkUuFMIcweDW4Yj/mCMyoOVcMaDhGS0YAU2VcqwpWCxafK5Nb1g38hGf4fGQzyI1EjQdKJGHrQOeMUPJvYdW4VQ8nMSKKtgixgNTlYUTX9NsWoTziVgzgPocR70e0qiyk/acKnivghRp3g7ghQ2xOmfACmlr0y7qaZO5tYIdHDKWZbbHCfnZ/ZRdPzQIymIU4e/1/pLaJEJfDZ+UaPFQy3y5c9Ka0XBxkE46La73UEYfGiJxBjpP5Arz/OJEUwPN4YjatfXy7P7XZsUxmG3lyMs9juwZwTrFQTm88sYZ6Seog9EfdIJSpW5zR5nwocIumPmMV4ifNLudxp+KYUw2WSj5x49NicBkhnb8P9N4eIwOOKAL36n5ZfTChv2VRwW3nY1JcJMfUr9YNA/GHHixG7xq+DJh7ClmLRAxKSn+pv8I+KkExh783y5zqw3wKYuFOzV86QjPmb2YFZboHWCHsWxr2kd5qEn35WaSaV5VJyif059gb3f9nwZxoKlh8l3PJstZnFnsk3ZfuHzkSJ8yP4RXcQOzqAim6rWhs787IJD4tIRfGavHvktkrZKeNyxTiJ/sz+WbAoIxzc8Wxo7oHRebfzKOkqe2G4a9H8Dtnzbl55GruYbkJYbXP1oMn8Y4zZC+RuEHn3C9/7EJSfJTpbmVycHJRqTcXaDZ2eMv0nOd2p/aL+DuaGQmiihKBPba4HHtcSYZ/bK8tonc2PQAIvoaRCGEjcGD5g0VuuPcIQ7bIUKqiwR4PPEhNVuGkOrn9jkGaZBOCPHUb4xrR0gD4b4OqaCochNI0HBFtmyWxrxrD1EnIu9tfooOpjwgfq3fq/xzdgmwDZsBWKgxXCqpDd5PdHWBKaYZpE32xxSv715tcz9KHKMaCXgOiZ6KOl4myLTcixzReI4i/+gDGJRrZqSf+BChPHx1GwUZkQ7kV+RX/4CHkQdA1Ezv0ZoBlKw9/qMAfn2BcJihwVwE/EQhGdW/rs09aP123y6mC0W0/nbKBnoEIe/N1Y9musMosoK6nTLEOqn7577IFQ+gpprmlVGhSDnl88iVdQdTb93rt29Hy9WhYCHfk0YtL8Am/XwkdZS8LvPJ7kPtXvAkGqtTP41sSNjMAOLQxJuFghO6DYLkPq4FJPqZQoHoXqKtiogaKymxERZtUca2f2gFj7lOmQIbu4TfDS1FJVYu5erRrzGqZlBzkIMTa5evObK2HXete7pOQ5qdwEfTrTUkT+dWvQ+l+oYxfi+C5MoeBUUUzq5EWp5xeCowrzZooSP9GCelh5TNjqhFFUcCqbTs171UbPfXTS/D8CE0VR/5fCJ9InQtf0KCwIumgFrugOH/8/EJagct4dCJbe1gh134dFcuy8gXOsINfL+DgSbE6odqbXsRX6lSP7+HLuCSKCO0dZBSziCRKq+opxSK627nLsZgyXVYtsalhiHaPuyjxyUgK/mhQ7lS2a0ZIbBpTx8acE4bebBZr4Oc25UeAKuEHeP4ygG0YtFSlHkHLdC6FD+jFJcRmRGWbNTvFxtkqg9GLSjZLNaDnc4nKAWwOArSKvCwxMSNndffYvIhJFavarzZIf3MytOwAL9x/TVI/v6r9MPmFeZzRef1QNz6rXe1Y62v+EfMI9aLK60yuR3oz0zGRjaCdILGYWb4O92thYD/bc7Gwgekw3lM6Cup0/Fo0pP78IqhFynyQhwrTS+RURflFGyQK8Eh/GMIuDtHtpV9/P3ubbWWtpxq5bSkkO/jIUsL97PzytmiT2ct4wHcVYRSCWsr71v2H/ASIIVMpvyFJ2M7yhvmReVpIeU2A+PgswlpYwqp4GyPBR9/xhG+UODJ+g1IZ9aqYWSPekI2eDZxZJA5+GA/lRipxKh/k5BnIV31BYJOkgs7VcgDE2akzKtzksMl15TPdfFWTXAlSc2uKuT+GIaPquaVxvkZdUfi582QGlWbeYpq/7MrZxjGO5uNFIcCvNwmwRlDUhMMsY12lg/cySd3MpOdK6/G4VpFkiTwtzLqLy7N9Gigp9xOT13/2K5ghvvWs+w74LLqi86MHITxheJUB/14XV/QYMxhjG1NbF2msF1FBUMGeWd3kR/tOIEaxUCvV02zTMqqCgc484jLvydpzAMNimxqkQ6dsRBQt4/+woeLanwcuoPjTYQKuMiIx7sILLYYh/nJGEf8m1KOwG+GHQNtSXJfwb9MH9J7iZY3/B+dzlxHWA38ibn5UzJ5ErblW3fDKVWP0271RD5vBB51PGQfbqdxMdRVASiLOcv0douw1sgqn6K3tFzETnzOGHk/ieVEe8FNXZUAZD7sxos2sbrwm1H+GpyoynHIU6ixzAkJPKfCTnH1Y5PDD69sgjWFX09t+MbLPePUcrbVX4cE2KiWxOpOCBsKT84+2xF8/Op0i5fm+zRqgU4HpwyfGWkbLscQ35SlGB34xiq9C0IQ9tMusMO7LUrHY8PZnn+paPNQ2+GWBHj1jacaC3Hn+ryE3rDQPtH7rPSZCir4cFzLgO4sL/E0GUI1XD1s1HsGO64DSGHGdfKW9YnRDiplmOf9lKLLyvxhwiFeiExzb0QQi6IbGlqmaaUk8iKG/As4nxnN7xisZoQmvBxkQChneh5N4SKIVXMLaZHcxrWs+boKB8AZqxbPYbykl4qaSfpJGm7S/c6Mtkya/pWGuTdEHYYrAVZ63dGTifVBkXHYb7SSFloW7jOV8/Jy5c1nbPlhbshxEClCDJlOEPZ81R9Z5tRFJzaUiZrbISUCo//138mZs9bi+1J6VyN0JH+G8yvjK0reowkR+Vj5uSWbE1bShZyzTws4/vBwcgsI/GuH8PBdGwR5SdbweY19vh75WN4YNbgR1tSLiUAziK09vWZvr4aYbvnGL+w8cpafY8xUl0Zf+YqSAUNEHx+RjmfQ8jxpfoSyue/GuG3Ix3g/6l1BaVhVD5Yz1aQuLHS/Pj70mvknR9D01+ZNL0SIQ9Tn/K1p2GiAxetvLvoeZJp9atKBmiBOtt7he8FCIMsRQqV8LVj2BUFhCxvnS1RgLxUq4oVNUAZxiNcp2v5nahLEE5MsOH1RoQ9fFIGUK3VWibvGAXImfDhhFqtFBhPMfLvH/lLEGYTcXQfhHlxY5aXObZG5GamhyKytKAnFqY5vo45j5DnEAZ3QMjELk33mtLDcGWlCCToTJ3JiKRNzexAd2FzfOlbl4zh2FWqtyKM/V9z5UzpC84saoLAEi0yld8JROqJ1/xA0gizv+1WhKVDNGUk0aqIRItRpC9G2q+KEuoChEnmSaOTUxNCDoK/5ezSLlCHkuHGqAC7RiV6fMoLEM6MtqDNUbWNIZpx1cGRvmmPsfa+zUpPUdacQcg5zX7VZxR4qgthuCejtAqiMdMELgrzLCjliY2dHcP2jpmESLLe60JI2z+qPacDNZkeI8XLzrSoEHQzUYwShKM0S/nc3urjn5uHtFWwRNYCJeblVhz30wxiIXyVISy+lkcvE/Qz9UKssffrGkNUbBWbrrkSC6gMU4uVI3TxcklyQBnC0yyWNAOKh50v2LJP1VLU/K95DA3CZek85LxPlp+cctZVpLOLO7YNQuGLQVm5qnbkvC6E5MUcS59AG9rclQ6zyCOyqJaL0CVcE8A/5J8W69SNsGqfkzGwdrksSp65eIMLEbp47dlfN8KK4gdmA4ocaEtshpCtqsu7OCbfBQh1oOHT7rG652FFMuuUvArX7tkU7JJLEeoc1zSfz1IXwui8PtwTwt3bS55Eiaw5gxBC4dN+vlPrQoghFynxy8ZwbVpblIsk9p3HZwj1Reb37BmTl75rsNeFsI9WW1kFC45GN3Z+yaA4NQoqtcX2azHypfPUbXmX+hZte0WtnPFyG4ozjT9+XY9Gq9WbptVokzz3IfJd5Jh7I8Q3hMZ7Kgt4v+R21pUi3NpNrrLanAbcD6Fjd2aLFlR2p8zHP7BLlBujiFkOYZWPX6DbEDLW26l1LhWm2b3HIwshRTFKTG/SCOdQ5oJuv4pwcC7WlmD+eeq/f2Y81TKidlkT+U8QOjxFzeFBSCtP/nipCSKKJx99UwcK27L9bYSeeWTPuiccJe9EXBkXqaQUwtLohV724a8i1JmzLsRclbEj+qKeTBoVp6JoTImsjTI+HWUS+jcRKoXtQbjPtbHkwdwsMlWklkyMh5HJmt9F+OysH+K+FmvW4eqUb/2QeLDCQ14ZNNkzfxdh0P+cWLTFWWfFVijd6lC4lZvNJaXrNiYAYAf4fxlhnjaI0JqI5EAVp9ratHTifpVRbMbZZLr9MkJHfmjJIGem9RGZpgUPamjm2EsZk3LqM3UdhYv/dAxNiUcTFySzhjlrF1xF7kndl+4O4kGWiGiCbn+LkJL0LLNGe1BK5Oa2RHFldGNLK+PFR2qaiVT9LUIKcqdWzvWUqizkZ+LB1H2o3AhpVIrptr9FiAos1+oBpGM4uYmJMchE5ZZTdMD0Q+FCymr40caN+yF8gw3rOfE4xYTFXIB+adIR3HioQyajj5jgxjGsXug7R1SKKy9X+ugkMGH1X2xibNW79FRGC12p5RfPMlN+UE1oeKcxDLnJZLfzvI+QK9WyqwQeaVW0usCjrgeDtUCosk5KWuYHRVrulecdkssnVD21rJEoVezgbpvKvJRH/JEiKGKiUxH1B0uGVb0vLwzBjeFxa+ma6B32xugUAVIYodTbVKgEG8U5lXeqsGeIYFcvew912oJ0OsfwwQ9qovF77LfgHItStUD95fhdJZlqrtxle2aSTo+li0teuPpgbHvMYv78uBViUrHrpNg4aSSOhdheXSgOKByyTD07+56w0IpgE1vtD4JLNiJJaH03BqqG4qeVPW7eN7uhkmyaG7pWA7gp7CIy6FD38IJW8qAQBNX7fH9au+Tnd9g3h5wUHMSVivM5S5EZ/o/7D8Oga3LvVFxp7Rmb2FJj/x9COhaAaSH+NPBsrlO7ErRr5dl++R9Qf68DGHBWSukughNqxZbaknQVSP5Xe7nJdlRq8FSuhtuYJCOv6hU3CJ4nVQZqy0Ts3SpeM82NoxCHFaMT9QyjXmVbYE2FMxnVtZCxiXrVu1DbaVY1SQ72xdJbK4fgdQfRvPN1MaTfHVVV6LiCYsqf9FbgzqhLi00K4+JydpONVbVNcD/4+VMfluK+tU04HzCGsQrfuQDZhUF/jLUDldTdX142jh8F7vdnVQlISFA1+cbKBg6NGB6kctbgn5mhkJTOtS1d1WI1EuF8rxkU7YnKbX5BXy/aqafftz5kTPHu9NyVb1adPdmMz7NVQKhOFN1xZmdDMNhh/vyNdrZD/S1ZZZWJiMr8Td7RBRGQbTB5qfC72y8fFIQFgOnZevodiuNU7cr9MUElOHAfnHptSgzm28Q/WZbjqvnpY7r212vLjpVBP39YLZ54ZgGz3l0VpxyaOcP6ZO4yRLZHEP/mweY9t/CoBUM6nL69JpEqAhElm7fl8GStAgN76Jp7vOLRgbXadeeae1yXmm+Bh++khIZvy417bfCyt3ivJfwL3eppwuqFKXfF0ut87fDHgTbQLe5fErqbkn84NQ+XvLdK4XUOG/ZVrQwqcElZk84KfhYNVh3QyfOGwqpqX55WgeVnzmCRT7BDHebrBkJEws4O6X9D4cOv4jwbTPNsWEEKn6uGOO9/gIp6ynKmRoZH66hfGkpNK2Av957e+crwoEq21QLTziCVPy8gVitxanZV9VlDh+uiHYNy19mUo8p4Z0sPXk1jCm93IEqxxObrsxI2AS9OjQ3UERZ2+rIhnJyTt6JU5MGaSoepS1QyaQiiQN93x3p7eaKVGajK2B1n9dKVpPepah6E63jPfPwKH36pA9oKHrXiFyslTnrVbR0yhBldVy1o1ZARhROhnndLe4MtAYUx1XkXHoiSorf4oyhK99/LMsOrPTZmKlaLkZy6QSGj7bWaEOoYPFhv758EttWiks2sNwJD03tzNHqZxp2v8Xj81Jkt316L50LRS2CdEo19NMd1TXbklvpqsit6ZxTgxuJmLZHxqhzGEgvNB9tf2U6O+BfpGZBTMDEEvbEiYfdmUrpc2RQgUVGuMhZ3LCutNI7Ds39xobDkoikwI+j1YWzmhcC4et1nI6gykbiNFwXMCpYQDcbe9apKxZZ3ZKiq3juCrwJjh8N6V4Pb1wi1VmeEnDSqI6Ups1MEJObebWeUoHupROarMpqig2291h6OVTGSE5TC1FJtESDzfhDG20oYz6nIpnz4mNY94sy8U5WF6ifa4WhX8dTrW9SMG84KmpvFrWxCQ60tPEzjN45j02f5agH+1c7yhcMgojy86/0aOGRP88E4J0+iD1xen//Gqog5s2vp2KF9WuS//swuPqBiYnZujvoPok8xflA7hcsd+y6ITDL8fSFdjqEAaB3HD4oPVjvBdD8V6s+rc9f8tULqIGLN/OuGyKT+s/Nc8g00xzM0ysJBd64eXE3FJvd74NazYmE66et9bk/vT/H0OJ8fj9PZ97s6/9D33Gdi08L7Ss2EX6MR8lfxcEDO9UkVBfJmvL2DTeqy6SNQjEb5m6ejE8tQocM7mPCiOCInPOBCK8POL5Yw1YlGOg/H8RB9k42CaelfrLJV0hrjVL4TLEv2FPrOA+aSTW/UqnURloLy+hZY+wPdLVCarSxZz6bsCMQHO1rdpKNhtRGfHhFW0BTPUvPtr6VQyf7B0gHMLq6vN310vN1ynZKvbOnDTm9vUGerg9zt5awiddPzfFyaHP+39JlFpNh4nvf0sdAHmwThQFV2HoSmTGgexbM+k4XCx/ddW7qZvow+gAjh3KSyctQjuTLDlBqwyBR5NIdolSlt+WATMauKg5KEHY5Ql5pDcS+Wy9+lTdIpMmeyPDgBx7oDTj8mOmCWYOrhOCyVeU6FCXKZmOi466KgAC93Ppu6+/oTFuogOBLN2QimQX4mn2hpzu3Llxifl19vKWBMyzU6vpU+nD4MwtUwm0YIESYlhpAsJuVouohiNBw+GbrnL/w5gekvQfbcFptjRJ0wJ8Z3W0LYAw8W+arv5GM+EvVHsEzRymrJCAi8OEkkS+JJGHWKw7Dh6r6njdVBfB0XeK+VO5BOUZKXnDB6s9GDDpxNwF14+GjLLPSyrRsS2Fq9oH7dzeo7QLUW4pvFiZEScI+FVDTVp1EKGL3t54PZaOdJj9dmmtJAFrVbQnqB7XSqw3/An3nCYBoaKz6nCjZavC819v8On03RvLPwrtZsFp3jbTuxHokeVbvdgXDvRBnCB3NzG2qooYYaaqihhhpqqKGGGmqooYYaaqihhhr63+kfRifvD4t2cg0AAAAASUVORK5CYII=;imageBorder=default;" parent="4" vertex="1">
          <mxGeometry x="550" y="430" width="80" height="80" as="geometry" />
        </mxCell>
        <mxCell id="80" style="edgeStyle=none;html=1;strokeColor=#0a0a0a;fontColor=#f8f6f6;" parent="4" source="72" target="77" edge="1">
          <mxGeometry relative="1" as="geometry" />
        </mxCell>
        <mxCell id="85" style="edgeStyle=none;html=1;entryX=1;entryY=0.75;entryDx=0;entryDy=0;strokeColor=#0a0a0a;fontColor=#f8f6f6;" parent="4" source="77" target="26" edge="1">
          <mxGeometry relative="1" as="geometry" />
        </mxCell>
        <mxCell id="86" value="Kibana" style="text;html=1;align=center;verticalAlign=middle;resizable=0;points=[];autosize=1;strokeColor=none;fillColor=#0d0d0d;fontColor=#f8f6f6;" parent="4" vertex="1">
          <mxGeometry x="155" y="450" width="60" height="30" as="geometry" />
        </mxCell>
        <mxCell id="87" value="Logstah" style="text;html=1;align=center;verticalAlign=middle;resizable=0;points=[];autosize=1;strokeColor=none;fillColor=#050505;fontColor=#f8f6f6;" parent="4" vertex="1">
          <mxGeometry x="155" y="280" width="70" height="30" as="geometry" />
        </mxCell>
        <mxCell id="88" value="Filebeat" style="text;html=1;align=center;verticalAlign=middle;resizable=0;points=[];autosize=1;strokeColor=none;fillColor=#050505;fontColor=#f8f6f6;" parent="4" vertex="1">
          <mxGeometry x="15" y="276" width="70" height="30" as="geometry" />
        </mxCell>
        <mxCell id="89" value="" style="edgeStyle=none;html=1;strokeColor=#0a0a0a;fontColor=#f8f6f6;endArrow=none;" parent="4" source="32" target="88" edge="1">
          <mxGeometry relative="1" as="geometry">
            <mxPoint x="-640" y="359.05999999999995" as="sourcePoint" />
            <mxPoint x="-640" y="505" as="targetPoint" />
          </mxGeometry>
        </mxCell>
        <mxCell id="90" value="Elasticsearch" style="text;html=1;align=center;verticalAlign=middle;resizable=0;points=[];autosize=1;strokeColor=none;fillColor=#050505;fontColor=#f8f6f6;" parent="4" vertex="1">
          <mxGeometry y="505" width="90" height="30" as="geometry" />
        </mxCell>
        <mxCell id="91" value="" style="shape=image;verticalLabelPosition=bottom;labelBackgroundColor=default;verticalAlign=top;aspect=fixed;imageAspect=0;image=data:image/jpeg,/9j/4AAQSkZJRgABAQAAAQABAAD/2wCEAAkGBwgHBgkIBwgKCgkLDRYPDQwMDRsUFRAWIB0iIiAdHx8kKDQsJCYxJx8fLT0tMTU3Ojo6Iys/RD84QzQ5OjcBCgoKDQwNGg8PGjclHyU3Nzc3Nzc3Nzc3Nzc3Nzc3Nzc3Nzc3Nzc3Nzc3Nzc3Nzc3Nzc3Nzc3Nzc3Nzc3Nzc3N//AABEIAHYAkQMBIgACEQEDEQH/xAAbAAACAwEBAQAAAAAAAAAAAAAABAMFBgcCAf/EAEQQAAEDAwEDCAYIAwYHAAAAAAECAwQABRESBiExExQyQVFhcYEVIkKRobEzNFJTYnJzgiOS0bLBwtLh8AcXQ0VUdKL/xAAZAQEAAwEBAAAAAAAAAAAAAAAAAQMEAgX/xAAhEQEAAgICAgIDAAAAAAAAAAAAAQIDEQQhEjEiYRNx8P/aAAwDAQACEQMRAD8A7jUbj7bfSVv7BxrxLcLbXqnBJxVbnO89dA6ucPYR7zURmOnhpHlSpUBUS3scKBtUt37fwFRLmuD2/gKRcepdx6gsFXJ9PBzHkK+empCDv5NXiKp3HqWcfqRpW9omx9Mwod6DmrOJcIsz6B1JV9k7j7qwC3s1Gl1aFpcbUUrSchQO8GoHTaKr7DLcm21t576TJST24PGrCgKKKKAooooCiiigKKKKCvvRKY7agcEOD5GkgorRngabvn1VH6g+RpJnoGgicC+rB8DSzgeG/k148KYe66TW84jOhxSfA1IgdcWnilQ8RSrjx76cVc5rfQkK8wDUYv1y1aecDH5E/wBKBEqcX0ULPgk0CJKX/wBBzzTirIXOa705CvIAVKhxa961qPiaCrRbZKjvSB55p1qzlA1PK3dg41Zs1LI6AqBYWNITASlIAAUcAVYUhZfqI/MafoCiiigKKKKAooooCiiigpNrpTkO2IkNx1PpQ6C4hHS04OSntI7KrrRdYNzjlcGQhzA3ozhSfFPEVd3z6qj9QfI1lZ+y1tuCucJSuNKByHWDpOaC2epB7rqrVb9o4Pqxrq3LbHBMpGT79x+NRmXfU7n7ZHdPay/p+CqBp6lfbqNUq4L42aUD+FxtX+KvI9I51Cy3D+VP9akWLXCnmeqqQSbincLLJz+N1tH99e0yb8rczborXYXX9fwTQWt2vUayx21vpdefeXyceMwnU6+v7KU9f91U8vaG+hZS/G2ftqv/AB512JeH5ghBAPdVE7KuEeVf7vNdQqdE5G2RFNp0pZ1p5RxSRniUkDPGsr4k5O8nNaMPH/JG5lny5/CdQ6tadqrxHjrSqyRrm2nKtdmuTb6vNCtJ+fhXh7bK/tuYkM7N25fXGlXNS3kdytCCAaxkJw2XZw3Bk6Z9xcUww51tsp6ZT2EnAzWfHdVleLEzPfTi3JmI9dusm/7Ty4TkuPI2cjRmum6wt6ce86UhOkeOar4u197Usc3v+zc5R4Mvx3ohV3BZJA8xXPYUuTAlIkwnlsvoO5aDv/1HdVvdWmLrbTe4bSGn0LDdwjt9FKj0XEjqCuBHbSeNET3JHImfTqmz+1TdxmqtlyhvWu7oTrMV4gpdT1qaWNzie8b+0Vo64PFnSXNmZ+VqU7ZQ3Ot7ntsqS4ApIP2VA4xXeKy5KeFvFopfzrsUUUVw7FFFFBW3z6s3+oPkaSa6Fe9rohmWxDbb62HUuhTTqDvQoA48R3VlG9oLlZ/4V+ty3GxuEuIMg+I/34UGiepB7rqOPf7VO3R5zWs+ws6Fe41I7vGRvB6xQIvUp7dNvddK+3UhtkDFPM9VIs9Qp5vcMqwAOOd1BjNoWNLW0rR4omxJvD2Ftlr+0g1kK6BenIku/iHGkMOuXK2vRShKwTyrf8VrPuc99c/rfxJ+Mww8mNW22MuVaolm2eTMtxlLMYkFbig22C4dR0pwVHPVmkdpYdrcgtXOyhKWhIVGdCAtKFHSFBSUqJKeJGO6otpci37Pgb0ejgQe0lasiviv4GxCEublSrkVtA9aUI0qPvOK7iutW+3EzvcE9noDVzvkKE+pSWnnML08cAZIHecY8607Fytr9rvDNvtzEdsWxZdPJELC9aQlOoqOrec5wKxsOS5DmMSmDh1hxLiPEHNbBUJCnr3IhIKoVzti5McDqXyiMo8QvIx3imWO9z/dmP10S2UhGRbyyRvuVwjxE7uKGyXnfLSjHnXbKwuxVp5K4oSRlmzsGPqz6q5TuFvEdukBCAe9QrdVgy387zLdjr40iBRRRVbsUUUUFbfPqyB+MfI0i0MtkHgRvFR7VXNqAGTIylkqwpWOj3nur3GWlxkLbUlaFDIUk5BHjQVU+x2yVnloTJPaEgVUq2bt7RPIc4Z/SeUmtO910g910FGq1No/7hdMf+wk/NNeRAj5wbhdc/nb/wAtWD1K+3UjwLU0vjOuih2GSE/JNSp2atrpBfQ69+s6pfzplrhTzPVQVlzsLDNrU9Z4jaZ8NaJUbTuKnGyFBOfxYKfBRrC7RsMtzxMhb4E9HOoysY9VW8p7ik5GO6uuM1nblZJFvcek26Zbm4C3TIXHucXlm4zp6TjRCk6cneUndnf11Ziy/jttVlx+cM4htpmxwLVeINxnTHneUix7ezqfiNq4qWTuCVHfpOOs9W6Ta+3xFRQbXO5dmzNtRXmSjBQVE+tqBwolQOccCKuLFEvk6DJbalR7rDefW6lcp12K8So79Sm8hSewYGBgeCN8RLt9pv1mfjwIzEdqFIaahpUQC46sK1LVvWfUG/A8Os2Y8szeP2rviiKsLW82RuHorZombKCES3V8xzHU6GnE8VKwejq0nT2jNYTrrouykKXcGbba2btPtzLVtVLd5kpAK1Ovq0Z1JV1JVWnlTqqnj13ZKi53bZzZFtyHOtri2iENtvQHkruD61ZISVLT661EnISRvrpKclI1DBxvHZWetex1rgXBFyeVLuFxQnCJc98vLRnjpB9VP7QK0Vea3iiiigKKKKCpv9pbukRTSxk4rmb1s2g2beUbW+5yGc8kd6T5GuxVE7HadGFoB8RQcma25lNHRdLac9amSR8D/WmUbY2h8est1o9i28492a3UzZqBJzqZTk91UsrYCA6SQgCgoVX61Ob0zm/MEfMVCLtb9eeeM/zVZuf8NoxPq1F/y1ZzxqUFxf7U2PWmt+QJ+QryvbO0sj1FPPEdSEY+eKaRsBAbUQtQyPGrCLsbaGsE4OO40Szbu3M1/wBS123BO4LdyrHkMV8iWa+7RSG3Lu+4toHIb4JHkN1b+JabTFA0JH8tWjT8RoAIIH7agRWS2ot0RDSRggVi9uIynto5cJAy9dLQnmydw5RyO6VlA/EQ5u8K33PY/wBv4Gqy+2+z36ImPcmy4lCw40tJUhbSxwUhQ3pPhU1nU7RMbjTiUO0XGc/zeNCkLczggtkBP5ieiPGurbBNNuSbjNjlDkRtDFvjvp4PJZSdah3cotY/bUitmLW+gN3G63iewN3ISZzmhQ7FBONf7s1oYrkGJHbjxUIZYaSEttto0pQBwAA4Crc2acntXjxRjO0Uvz1j7fwNHPWPt/A1StMUUvz2P9v4GvTclp1WlCsnwoJqKKKAooooCiiigKKKKCke+nc/OfnVCi6XJ2FJmMwYhaZceSEqlKClBtak56GATpzV899O5+c/OqC3WCPzZ5NwjhanJL61IU4pSVJU6pQynOOBG7FSLBq5wXFMtiUyl55KVIZW4A4QRkernOa9i4QucGOJkflxkFvlU6hgZO7wqoehS/R022JhqUqS64UygpAQNaiQs79WpORuxxSK+NwprbzbbMd9KEzC6W3VNLYwXCpS0n6QKwSQOo7uFQLBi+Wt6IiVz6M2ytakJU46kZI4jj3Z8KYVPhJU2lUuOFOKCEAupypRJAA37zkEeVUdv5e23D+NHSp1TK0JRyyEq0h1StScnBSdYzvBBA3cKWstqdlQLiptDcfnTD7LDzZyEFTzxynrx6yDnroNI3OiyOUTEkMPuNpJLbbgUfh37qrID8u4QEyIt1QqWpGoxw2jQheOgU9Ib93HNfGYUxx+KooksmMhYQp5bJQhRQUgJCBlQ3534G4deK+vhEuMBcbK65N0YOlpJGrHFLmdwzvzkYqyjixhh6bcXnUoc5m0wQ2vQErWpzAKgCQQAM44HJ7KWus6baWHgt4PhbDi47ymwFJWgZ0qA3HI3g4HA16tbU20NcnLbdlJdSlxbrI1qS7pAWCOJBIzkdtK3znN1K2kQ5TaERnSxrb3uuFOn9uAT0sZz3V3EfL6cTPx+2mqeB9aR5/KqtM9alAej5oycZKE4H/1VpB+tI8/lVMwtidreiiioSKKKKAooooCiiigTcgJWtStZGTnGK8+jk/eH3UUUB6OT94fdR6OT94fdRRQRu2eO+AHglwDgFoCse+pBbUgABwgDqA4UUUB6OT94fdR6OT94fdRRQHo5P3h91Ho5P3ivdRRQHo5P3h91SMQksuBYWSR3UUUDVFFFB//2Q==;imageBorder=default;" parent="4" vertex="1">
          <mxGeometry x="543.98" y="605" width="86.02" height="70" as="geometry" />
        </mxCell>
        <mxCell id="93" value="APM server" style="text;html=1;align=center;verticalAlign=middle;resizable=0;points=[];autosize=1;strokeColor=none;fillColor=#050505;fontColor=#f8f6f6;" parent="4" vertex="1">
          <mxGeometry x="152.5" y="680" width="90" height="30" as="geometry" />
        </mxCell>
        <mxCell id="94" value="API database" style="text;html=1;align=center;verticalAlign=middle;resizable=0;points=[];autosize=1;strokeColor=none;fillColor=#050505;fontColor=#f8f6f6;" parent="4" vertex="1">
          <mxGeometry x="530" y="675" width="100" height="30" as="geometry" />
        </mxCell>
        <mxCell id="95" value="" style="shape=image;verticalLabelPosition=bottom;labelBackgroundColor=default;verticalAlign=top;aspect=fixed;imageAspect=0;image=https://8grams.tech/blog/content/images/2023/05/konga-logo.png;clipPath=inset(0% 76.67% 0% 0%);imageBorder=default;" parent="4" vertex="1">
          <mxGeometry x="383.03" y="156" width="74.44" height="68.06" as="geometry" />
        </mxCell>
        <mxCell id="98" value="Konga/ api gateway ui" style="text;html=1;align=center;verticalAlign=middle;resizable=0;points=[];autosize=1;strokeColor=none;fillColor=#050505;fontColor=#f8f6f6;" parent="4" vertex="1">
          <mxGeometry x="360" y="207" width="140" height="30" as="geometry" />
        </mxCell>
        <mxCell id="92" style="edgeStyle=none;html=1;strokeColor=#0a0a0a;fontColor=#f8f6f6;entryX=0.5;entryY=0;entryDx=0;entryDy=0;" parent="4" source="77" target="91" edge="1">
          <mxGeometry relative="1" as="geometry">
            <mxPoint x="580" y="690" as="targetPoint" />
          </mxGeometry>
        </mxCell>
      </root>
    </mxGraphModel>
  </diagram>
</mxfile>
